<svg width="30.000000000000004" height="30.000000000000004" xmlns="http://www.w3.org/2000/svg" fill="none">

 <g>
  <title>Layer 1</title>
  <path stroke="#a39b76" id="svg_1" fill="currentColor" d="m29.3069,6.65307c-0.5376,-1.05258 -1.3946,-1.77088 -2.4775,-2.07721c-1.4625,-0.41361 -3.0421,-0.02824 -4.1949,0.54299c-0.2246,-0.84469 -0.6608,-1.6182 -1.2673,-2.24752c-0.6066,-0.62932 -1.3635,-1.09367 -2.1993,-1.34922c-0.8359,-0.25556 -1.7231,-0.29388 -2.5778,-0.11134c-0.8548,0.18253 -1.6489,0.57989 -2.3075,1.15457c-0.6729,-0.58698 -1.487,-0.98867 -2.3623,-1.16553c-0.8752,-0.17686 -1.7815,-0.1228 -2.6295,0.15685c-0.84803,0.27965 -1.60865,0.77526 -2.20701,1.43806c-0.59837,0.66281 -1.01387,1.46998 -1.20563,2.3421c-1.934,-0.01453 -3.37464,0.51738 -4.514,1.65668c-1.10215,1.10203 -1.42061,2.57982 -0.85184,3.953c0.68116,1.6444 2.42924,2.7018 4.61608,2.8193l0,4.011c0,0.4399 0.31406,1.0811 3.02971,1.5674c1.75904,0.315 4.09259,0.4885 6.57099,0.4885c2.4784,0 4.812,-0.1735 6.5709,-0.4885c2.7157,-0.4863 3.0297,-1.1275 3.0297,-1.5674l0,-4.0707c1.6083,-0.365 4.0425,-1.6938 5.0006,-3.5514c0.5801,-1.12489 0.5721,-2.33573 -0.0234,-3.50163zm-5.7975,10.17673c-0.4523,-0.2163 -1.1471,-0.4302 -2.2094,-0.6204c-1.7589,-0.315 -4.0926,-0.4885 -6.5709,-0.4885c-2.4783,0 -4.81201,0.1735 -6.57099,0.4885c-1.06231,0.1902 -1.75711,0.4043 -2.2094,0.6204l0,-3.0785c1.01883,-0.1257 1.97139,-0.6962 2.97287,-1.2963c1.71922,-1.0301 3.34302,-2.0031 5.41592,-0.9416c3.6167,1.852 6.3505,2.3566 8.2555,2.3565c0.3303,0 0.6357,-0.0151 0.9164,-0.041l0,3.0009zm-2.6304,1.7544c-1.678,0.2761 -3.8621,0.4282 -6.1499,0.4282c-2.2878,0 -4.472,-0.1524 -6.15,-0.4282c-1.82098,-0.2996 -2.47025,-0.6559 -2.61099,-0.8074c0.14062,-0.1516 0.79001,-0.5078 2.61099,-0.8074c1.678,-0.2762 3.8621,-0.4282 6.15,-0.4282c2.2879,0 4.4719,0.1523 6.1499,0.4282c1.821,0.2996 2.4703,0.6558 2.6111,0.8074c-0.1408,0.1515 -0.7901,0.5078 -2.6111,0.8074zm7.7222,-8.80545c-0.8927,1.73085 -3.3702,2.98045 -4.7414,3.18245c-1.7344,0.2556 -4.7291,0.085 -9.1485,-2.178c-0.7644,-0.3914 -1.4816,-0.549 -2.1595,-0.549c-1.5198,0 -2.84184,0.7921 -4.05186,1.5172c-1.03453,0.6199 -2.01176,1.2054 -2.96139,1.2054c-2.4375,0 -3.80273,-1.2006 -4.26837,-2.3242c-0.43741,-1.05611 -0.18545,-2.19969 0.67382,-3.0592c1.04883,-1.04853 2.36133,-1.48324 4.25391,-1.40877c2.05951,0.1244 3.28998,1.23246 3.84029,1.88215c0.0703,0.08302 0.1707,0.1347 0.2791,0.14369c0.1084,0.00899 0.216,-0.02546 0.299,-0.09576c0.083,-0.0703 0.1347,-0.1707 0.1437,-0.27912c0.009,-0.10841 -0.0255,-0.21595 -0.0958,-0.29897c-0.99889,-1.17943 -2.3902,-1.92398 -3.95506,-2.12695c0.23795,-0.93264 0.77873,-1.75993 1.53753,-2.3521c0.7588,-0.59218 1.69269,-0.91574 2.65523,-0.91995c0.5755,-0.00167 1.1454,0.11246 1.6759,0.3356c0.5305,0.22314 1.0107,0.55072 1.412,0.96325c0.0382,0.03897 0.0837,0.06994 0.134,0.09108c0.0503,0.02114 0.1044,0.03203 0.1589,0.03203c0.0546,0 0.1086,-0.01089 0.1589,-0.03203c0.0503,-0.02114 0.0959,-0.05211 0.1341,-0.09108c0.4013,-0.41255 0.8814,-0.74014 1.4119,-0.96328c0.5305,-0.22314 1.1005,-0.33726 1.676,-0.33557c0.9922,0.00454 1.9531,0.34843 2.7229,0.97455c0.7697,0.62612 1.3021,1.49677 1.5087,2.46731c-0.8501,0.63996 -1.6853,1.82513 -1.6853,3.13289c0,0.10878 0.0432,0.2131 0.1201,0.29002c0.077,0.07692 0.1813,0.12013 0.2901,0.12013c0.1087,0 0.2131,-0.04321 0.29,-0.12013c0.0769,-0.07692 0.1201,-0.18124 0.1201,-0.29002c0,-1.28321 1.0006,-2.25967 1.5324,-2.59893c0.9698,-0.59004 2.609,-1.13402 4.0436,-0.72832c0.8701,0.24609 1.533,0.80496 1.9702,1.66102c0.4768,0.93381 0.4852,1.85988 0.0248,2.75261zm-1.3517,11.10795l-4.6297,1.2406c-0.0667,0.0179 -0.1144,0.0133 -0.1414,-0.0138c-0.0132,-0.014 -0.0227,-0.0311 -0.0276,-0.0497c-0.005,-0.0185 -0.0053,-0.038 -0.0009,-0.0568c0.0099,-0.0369 0.0487,-0.0647 0.1155,-0.0826l4.6298,-1.2405c0.2355,-0.0623 0.4371,-0.2146 0.5614,-0.4241c0.1244,-0.2094 0.1615,-0.4594 0.1034,-0.6959c-0.0581,-0.2366 -0.2068,-0.4409 -0.414,-0.569c-0.2072,-0.128 -0.4564,-0.1696 -0.694,-0.1157l-6.3053,1.4092c-0.32,0.0715 -0.6021,0.2593 -0.7917,0.5269c-0.1895,0.2676 -0.273,0.596 -0.2344,0.9216l-4.9687,1.3314l-10.2634,-2.7502c-0.15119,-0.0405 -0.31152,-0.03 -0.45618,0.0298c-0.14465,0.0597 -0.26556,0.1656 -0.344,0.301c-0.07844,0.1355 -0.11004,0.293 -0.08991,0.4482c0.02012,0.1553 0.09086,0.2995 0.20126,0.4105l2.7198,2.7343c0.02735,0.0272 0.05842,0.0505 0.09229,0.0691c-1.5378,0.327 -1.65311,0.3578 -1.69758,0.3697c-0.26049,0.0686 -0.50487,0.188 -0.71911,0.3513c-0.21423,0.1633 -0.3941,0.3673 -0.52929,0.6003c-0.13519,0.233 -0.22303,0.4904 -0.25847,0.7574c-0.03545,0.267 -0.0178,0.5384 0.05192,0.7986c0.06972,0.2602 0.19015,0.5041 0.35437,0.7176c0.16421,0.2135 0.36899,0.3925 0.60256,0.5267c0.23358,0.1342 0.49135,0.2209 0.75854,0.2552c0.26718,0.0343 0.5385,0.0155 0.79839,-0.0554c0.33041,-0.0886 5.47151,-1.7139 7.69501,-2.4176l3.3767,0.9048c0.1051,0.0281 0.2171,0.0134 0.3113,-0.041c0.0942,-0.0544 0.1629,-0.144 0.1911,-0.2491l0.0979,-0.3656l6.6395,1.779c0.1075,0.0289 0.2184,0.0436 0.3297,0.0437c0.3071,-0.0001 0.6037,-0.112 0.8345,-0.3146c0.2308,-0.2027 0.38,-0.4824 0.4199,-0.7869c0.0398,-0.3045 -0.0325,-0.6132 -0.2034,-0.8684c-0.1709,-0.2552 -0.4288,-0.4395 -0.7255,-0.5187l-5.9375,-1.5909l1.289,-0.3455c0.1017,0.2379 0.2707,0.4407 0.4863,0.5835c0.2157,0.1428 0.4684,0.2192 0.727,0.22c0.1352,-0.0002 0.2695,-0.0209 0.3984,-0.0616l6.1648,-1.9336c0.232,-0.0726 0.4262,-0.2332 0.5411,-0.4473c0.1149,-0.2142 0.1413,-0.4649 0.0735,-0.6983c-0.0679,-0.2334 -0.2245,-0.4309 -0.4363,-0.5502c-0.2118,-0.1192 -0.4619,-0.1506 -0.6966,-0.0876l0,0.0002zm-7.6296,1.646l0.1448,0.5404l-2.6471,0.7094l-1.0808,-0.2896l3.5831,-0.9602zm-14.15916,5.3073c-0.31391,0.0842 -0.64837,0.0401 -0.92981,-0.1224c-0.28144,-0.1625 -0.48681,-0.4301 -0.57092,-0.744c-0.08411,-0.3139 -0.04008,-0.6484 0.12242,-0.9298c0.16249,-0.2815 0.43013,-0.4868 0.74404,-0.5709c0.09375,-0.0252 0.73119,-0.1659 3.2066,-0.6879l3.86243,1.035c-3.15316,0.9972 -6.20706,1.9592 -6.43476,2.02zm11.10026,-1.619l-9.83791,-2.636l-2.3577,-2.3702l12.63011,3.3842l-0.4345,1.622zm8.1368,0.5768c0.044,0.0763 0.0644,0.1639 0.0586,0.2518c-0.0057,0.0878 -0.0374,0.172 -0.091,0.2418c-0.0536,0.0699 -0.1267,0.1223 -0.2101,0.1506c-0.0834,0.0283 -0.1733,0.0313 -0.2583,0.0085l-6.6395,-1.779l0.2304,-0.8602l6.6396,1.7791c0.0565,0.015 0.1095,0.041 0.1559,0.0766c0.0465,0.0356 0.0853,0.0801 0.1144,0.1308zm2.8246,-4.9101l-6.1648,1.9336c-0.0648,0.0203 -0.133,0.0273 -0.2006,0.0206c-0.0676,-0.0067 -0.1331,-0.0271 -0.1926,-0.0598c-0.0596,-0.0327 -0.1119,-0.0771 -0.1538,-0.1305c-0.0419,-0.0535 -0.0725,-0.1149 -0.0901,-0.1805l-0.4716,-1.7599c-0.0176,-0.0656 -0.0217,-0.1341 -0.0121,-0.2013c0.0095,-0.0672 0.0326,-0.1318 0.0678,-0.1899c0.0352,-0.0581 0.0817,-0.1085 0.1369,-0.1481c0.0551,-0.0396 0.1177,-0.0677 0.184,-0.0825l6.3054,-1.4089c0.0275,-0.0064 0.0564,-0.0017 0.0805,0.013c0.0241,0.0147 0.0414,0.0382 0.0484,0.0656c0.0037,0.0137 0.0046,0.0281 0.0028,0.0422c-0.0019,0.0142 -0.0065,0.0278 -0.0136,0.0401c-0.0071,0.0124 -0.0166,0.0232 -0.0279,0.0319c-0.0113,0.0086 -0.0242,0.015 -0.038,0.0187l-4.6297,1.2405c-0.1285,0.0312 -0.2492,0.0882 -0.3549,0.1675c-0.1057,0.0793 -0.1942,0.1793 -0.2601,0.2939c-0.1141,0.2084 -0.1428,0.4531 -0.0798,0.6822c0.1161,0.4333 0.567,0.8061 1.1736,0.6435l4.6297,-1.2405c0.0278,-0.0074 0.0574,-0.0035 0.0823,0.0109c0.0249,0.0143 0.0431,0.038 0.0506,0.0658c0.0073,0.027 0.0039,0.0559 -0.0096,0.0804c-0.0135,0.0245 -0.036,0.0429 -0.0628,0.0512l0,0.0003z"/>
 </g>
</svg>