<svg width="30" height="30" xmlns="http://www.w3.org/2000/svg" fill="none">

 <g>
  <title>Layer 1</title>
  <path stroke="#a39b76" id="svg_1" fill="currentColor" d="m26.0854,14.7123l-0.691,0c-0.2856,-1.3542 -1.653,-2.3788 -3.3663,-2.4863c-0.4691,-1.2509 -1.8919,-2.1264 -3.5441,-2.1264c-0.3669,0.0036 -0.7319,0.051 -1.0875,0.1413c-0.7504,-0.58857 -1.6794,-0.90307 -2.6329,-0.89143c-0.6095,-0.01578 -1.2144,0.10953 -1.7675,0.36614c-0.553,0.25661 -1.0393,0.63759 -1.4208,1.11319c-1.86791,-0.0381 -3.47169,1.1003 -3.73622,2.5705c-1.02143,0.0712 -1.97335,0.5431 -2.64839,1.313l-1.27572,0c-0.06155,0 -0.1225,0.0121 -0.17937,0.0357c-0.05687,0.0235 -0.10855,0.058 -0.15207,0.1016c-0.04353,0.0435 -0.07805,0.0952 -0.1016,0.152c-0.02355,0.0569 -0.03566,0.1178 -0.03564,0.1794l0,1.623c0.00239,1.8592 0.55696,3.6758 1.59336,5.2194c1.03639,1.5435 2.50791,2.7445 4.22787,3.4505l0,0.8667c0.00057,0.4731 0.1888,0.9268 0.5234,1.2613c0.33458,0.3346 0.78828,0.5227 1.26138,0.5233l7.8958,0c0.4731,-0.0006 0.9268,-0.1887 1.2614,-0.5233c0.3346,-0.3345 0.5228,-0.7881 0.5234,-1.2613l0,-0.8667c1.7199,-0.706 3.1914,-1.9069 4.2278,-3.4505c1.0364,-1.5436 1.591,-3.3602 1.5934,-5.2194l0,-1.623c0,-0.0616 -0.0121,-0.1225 -0.0357,-0.1794c-0.0235,-0.0568 -0.058,-0.1085 -0.1015,-0.152c-0.0436,-0.0436 -0.0952,-0.0781 -0.1521,-0.1016c-0.0569,-0.0236 -0.1178,-0.0357 -0.1794,-0.0357zm-17.83453,-0.3982c0.06245,0.0021 0.12466,-0.0085 0.18293,-0.031c0.05827,-0.0226 0.11139,-0.0566 0.1562,-0.1002c0.04481,-0.0435 0.08037,-0.0956 0.10458,-0.1532c0.0242,-0.0576 0.03655,-0.1195 0.03629,-0.182c-0.02782,-1.2405 1.51923,-2.2166 3.06613,-2.0744c0.0842,0.0021 0.1676,-0.0182 0.2414,-0.0587c0.0739,-0.0406 0.1358,-0.1001 0.1792,-0.1723c0.2829,-0.4082 0.665,-0.7377 1.1104,-0.9573c0.4455,-0.2197 0.9395,-0.3223 1.4355,-0.2982c0.8033,-0.0186 1.5838,0.2677 2.1844,0.8015c0.0636,0.0517 0.1377,0.0889 0.2172,0.1089c0.4368,0.0185 0.8594,-0.2027 1.3189,-0.1601c1.4228,0.0032 2.5483,0.791 2.7814,1.8559c0.04,0.0793 0.1017,0.1457 0.1779,0.1915c0.0762,0.0457 0.1638,0.069 0.2526,0.0671c1.2856,-0.0146 2.4131,0.658 2.7269,1.5607l-17.7798,0c0.49466,-0.2639 1.0472,-0.4008 1.60787,-0.3982zm11.54463,12.0265c-0.0003,0.2246 -0.0896,0.44 -0.2485,0.5989c-0.1589,0.1588 -0.3743,0.2481 -0.5989,0.2483l-7.8958,0c-0.2246,-0.0002 -0.44,-0.0895 -0.5989,-0.2483c-0.1589,-0.1589 -0.2483,-0.3743 -0.2485,-0.5989l0,-0.5414c0.8493,0.2495 1.7298,0.377 2.615,0.3785l4.3605,0c0.8853,-0.0015 1.7658,-0.129 2.6151,-0.3785l0,0.5414zm5.8212,-9.5366c-0.0025,2.2367 -0.8922,4.381 -2.4737,5.9625c-1.5816,1.5816 -3.7259,2.4712 -5.9626,2.4738l-4.3605,0c-5.18755,-0.0013 -8.90802,-4.5185 -8.43613,-9.5906c0.01219,0.0017 1.01863,-0.0034 1.02945,0.0018c0.00623,-0.006 19.55148,0.0005 19.56158,-0.0018c0.0096,0.0026 0.0198,0.0026 0.0295,0l0.6124,0l0,1.1543z"/>
  <path stroke="#a39b76" id="svg_2" fill="currentColor" d="m11.1227,7.23855c-0.0742,0.09778 -0.1071,0.22076 -0.0916,0.34251c0.0155,0.12176 0.0781,0.23259 0.1744,0.30869c0.0963,0.0761 0.2186,0.1114 0.3406,0.09832c0.1221,-0.01308 0.2341,-0.07349 0.3121,-0.16827c0.3533,-0.44548 0.5365,-1.00212 0.5169,-1.57032c-0.0196,-0.56821 -0.2407,-1.11092 -0.6238,-1.53102c-0.2564,-0.28082 -0.3927,-0.65082 -0.3797,-1.03086c0.0129,-0.38003 0.174,-0.73992 0.4488,-1.00269c0.0867,-0.08694 0.1357,-0.20439 0.1367,-0.3271c0.001,-0.12272 -0.0462,-0.24094 -0.1314,-0.32925c-0.0852,-0.08832 -0.2017,-0.13971 -0.3243,-0.14312c-0.1227,-0.00342 -0.2418,0.04141 -0.3318,0.12485c-0.4514,0.43198 -0.7156,1.02351 -0.7362,1.64791c-0.0205,0.62441 0.2042,1.23205 0.6261,1.6928c0.2328,0.25599 0.3669,0.58639 0.3785,0.93217c0.0115,0.34578 -0.1002,0.68441 -0.3153,0.95538z"/>
  <path stroke="#a39b76" id="svg_3" fill="currentColor" d="m14.7236,7.23845c-0.0742,0.09778 -0.1071,0.22076 -0.0916,0.34254c0.0154,0.12177 0.0781,0.23262 0.1744,0.30873c0.0963,0.07611 0.2186,0.11141 0.3407,0.09832c0.122,-0.0131 0.2341,-0.07354 0.312,-0.16834c0.3535,-0.44539 0.5369,-1.00204 0.5173,-1.5703c-0.0195,-0.56825 -0.2407,-1.11099 -0.6239,-1.53104c-0.2564,-0.28079 -0.3928,-0.65078 -0.3799,-1.03081c0.0129,-0.38004 0.174,-0.73995 0.4488,-1.00274c0.0866,-0.08688 0.1357,-0.20427 0.1368,-0.32696c0.001,-0.12269 -0.0461,-0.2409 -0.1313,-0.32923c-0.0851,-0.08832 -0.2015,-0.13973 -0.3242,-0.14318c-0.1226,-0.00345 -0.2417,0.04134 -0.3317,0.12475c-0.4515,0.43189 -0.7158,1.02339 -0.7365,1.64782c-0.0206,0.62442 0.204,1.23211 0.626,1.69289c0.2328,0.25593 0.367,0.58635 0.3786,0.93216c0.0115,0.34581 -0.1003,0.68446 -0.3155,0.95539z"/>
  <path stroke="#a39b76" id="svg_4" fill="currentColor" d="m18.3254,7.23845c-0.0742,0.09778 -0.1071,0.22076 -0.0917,0.34254c0.0155,0.12177 0.0781,0.23262 0.1744,0.30873c0.0964,0.07611 0.2187,0.11141 0.3407,0.09832c0.1221,-0.0131 0.2341,-0.07354 0.3121,-0.16834c0.3533,-0.44546 0.5366,-1.00211 0.517,-1.57033c-0.0196,-0.56822 -0.2407,-1.11093 -0.6239,-1.53101c-0.2564,-0.28079 -0.3927,-0.65078 -0.3798,-1.03081c0.0128,-0.38004 0.1739,-0.73995 0.4487,-1.00274c0.0867,-0.08688 0.1358,-0.20427 0.1368,-0.32696c0.0011,-0.12269 -0.0461,-0.2409 -0.1312,-0.32923c-0.0852,-0.08832 -0.2016,-0.13973 -0.3242,-0.14318c-0.1227,-0.00345 -0.2418,0.04134 -0.3318,0.12475c-0.4514,0.43189 -0.7158,1.02339 -0.7364,1.64782c-0.0207,0.62442 0.204,1.2321 0.6259,1.69289c0.2328,0.25593 0.3671,0.58633 0.3787,0.93213c0.0116,0.34579 -0.1002,0.68444 -0.3153,0.95542z"/>
 </g>
</svg>