<svg width="30" height="30" xmlns="http://www.w3.org/2000/svg" fill="none">

 <g>
  <title>Layer 1</title>
  <path stroke="#a39b76" id="svg_1" fill="currentColor" d="m5.44918,6.35718l0.87305,1.80469l1.98047,0.26953c0.39258,0.05273 0.5332,0.53906 0.26367,0.79688l-1.44727,1.38862l0.35743,1.9688c0.07031,0.3867 -0.33985,0.6797 -0.67969,0.4922l-1.76367,-0.9492l-1.76367,0.9492c-0.33985,0.1816 -0.76758,-0.0996 -0.67383,-0.5215l0.35156,-1.9453l-1.44727,-1.38868c-0.28125,-0.26954 -0.1289,-0.75 0.26954,-0.80274l1.9746,-0.26953l0.87305,-1.80469c0.16406,-0.3457 0.66797,-0.33984 0.83203,0.01172zm0.14063,2.4375l-0.55664,-1.16015l-0.5625,1.16015c-0.06446,0.13477 -0.19922,0.24024 -0.35743,0.26367l-1.27148,0.16993l0.93164,0.89062c0.10547,0.1055 0.16406,0.2578 0.13477,0.416l-0.22852,1.2656l1.125,-0.6035c0.13477,-0.0703 0.30469,-0.082 0.44531,0l1.13086,0.6094l-0.22265,-1.2422c-0.03516,-0.1523 0.00586,-0.3223 0.1289,-0.4453l0.93164,-0.89062l-1.25976,-0.16993c-0.15235,-0.01757 -0.29883,-0.11718 -0.36914,-0.26367zm9.83199,-6.68554l0.8731,1.80468l1.9863,0.26953c0.3926,0.05274 0.5332,0.53907 0.2637,0.80274l-1.4473,1.38867l0.3574,1.96875c0.0704,0.38672 -0.3398,0.67969 -0.6796,0.49219l-1.7754,-0.94922l-1.7637,0.94922c-0.3399,0.18164 -0.7676,-0.09961 -0.6738,-0.52149l0.3515,-1.94531l-1.4531,-1.38867c-0.2812,-0.26953 -0.1289,-0.75 0.2695,-0.80273l1.9746,-0.26954l0.8731,-1.79882c0.1758,-0.35743 0.6738,-0.35157 0.8437,0zm0.1407,2.4375l-0.5625,-1.16016l-0.5567,1.16016c-0.0644,0.13476 -0.1992,0.24023 -0.3574,0.26367l-1.2773,0.16992l0.9316,0.89062c0.1113,0.10547 0.1641,0.25782 0.1348,0.41602l-0.2286,1.26562l1.1309,-0.60351c0.1348,-0.07031 0.2988,-0.08203 0.4453,0l1.1309,0.60937l-0.2227,-1.24218c-0.0351,-0.15235 0.0059,-0.32227 0.1289,-0.44532l0.9317,-0.89062l-1.2598,-0.17578c-0.1582,-0.01172 -0.2988,-0.11133 -0.3691,-0.25781zm9.8261,1.81054l0.8731,1.80469l1.9805,0.26953c0.3925,0.05273 0.539,0.53906 0.2636,0.79688l-1.4472,1.38862l0.3574,1.9688c0.0703,0.3867 -0.3399,0.6797 -0.6797,0.4922l-1.7637,-0.9492l-1.7636,0.9492c-0.3399,0.1816 -0.7676,-0.0996 -0.6797,-0.5215l0.3515,-1.9453l-1.4472,-1.38868c-0.2813,-0.26954 -0.1289,-0.75 0.2695,-0.80274l1.9746,-0.26953l0.873,-1.80469c0.17,-0.3457 0.6739,-0.33984 0.8379,0.01172zm0.1407,2.4375l-0.5567,-1.16015l-0.5625,1.16015c-0.0644,0.13477 -0.1933,0.24024 -0.3574,0.26367l-1.2715,0.16993l0.9258,0.89062c0.1055,0.1055 0.1641,0.2578 0.1348,0.416l-0.2286,1.2656l1.1309,-0.6035c0.1348,-0.0703 0.3047,-0.082 0.4453,0l1.1367,0.6094l-0.2226,-1.2422c-0.0352,-0.1523 0.0058,-0.3223 0.1289,-0.4453l0.9258,-0.89062l-1.2598,-0.16993c-0.1523,-0.01757 -0.2988,-0.11718 -0.3691,-0.26367zm-12.7032,9.52732c-0.1289,-0.2226 -0.0527,-0.5097 0.17,-0.6386c0.2226,-0.129 0.5097,-0.0528 0.6386,0.1699l0.6153,1.0664l2.1855,-2.1856c0.1817,-0.1816 0.4805,-0.1816 0.6621,0c0.1817,0.1817 0.1817,0.4805 0,0.6621l-2.6191,2.6192c-0.2168,0.2168 -0.5801,0.1699 -0.7324,-0.0938l-0.92,-1.5996zm2.1739,-4.9511c2.5488,0 4.6172,2.0683 4.6172,4.6171c0,2.5489 -2.0684,4.6172 -4.6172,4.6172c-2.5489,0 -4.6172,-2.0683 -4.6172,-4.6172c0,-2.5488 2.0683,-4.6171 4.6172,-4.6171zm2.6015,2.0156c-1.4355,-1.4356 -3.7676,-1.4356 -5.2031,0c-1.4355,1.4355 -1.4355,3.7676 0,5.2031c1.4355,1.4356 3.7676,1.4356 5.2031,0c1.4356,-1.4414 1.4356,-3.7676 0,-5.2031zm-2.6015,-4.916c4.1484,0 7.5117,3.3632 7.5117,7.5117c0,1.5703 -0.4805,3.0293 -1.3067,4.2363l2.2442,3.8848c0.2168,0.3633 -0.082,0.7734 -0.4688,0.7148l-2.2968,-0.3633l-1.2305,1.5118c-0.2168,0.2812 -0.6211,0.2343 -0.7793,-0.0469l-1.5703,-2.7188c-1.3711,0.3985 -2.8418,0.3985 -4.2071,0l-1.5703,2.7188c-0.1582,0.2812 -0.5625,0.3281 -0.7793,0.0469l-1.23043,-1.5118l-2.29687,0.3633c-0.39258,0.0645 -0.66797,-0.3633 -0.48047,-0.6972l2.25586,-3.9024c-2.03907,-2.9824 -1.65821,-6.9961 0.89648,-9.5508c1.35353,-1.3535 3.23433,-2.1972 5.30863,-2.1972zm5.5839,12.539c-0.7148,0.7969 -1.5937,1.4356 -2.5898,1.8692l1.1484,1.9863l0.9844,-1.207c0.1113,-0.1407 0.2813,-0.1934 0.4453,-0.1641l1.5821,0.252l-1.5704,-2.7364zm-8.5839,1.8692c-0.9903,-0.4336 -1.8692,-1.0723 -2.58402,-1.8633l-1.57617,2.7305l1.58203,-0.252c0.1582,-0.0293 0.33398,0.0293 0.44531,0.1641l0.98435,1.207l1.1485,-1.9863zm7.6523,-11.543c-2.5664,-2.5664 -6.7324,-2.5664 -9.2988,0c-2.56643,2.5664 -2.56643,6.7324 0,9.2988c2.5722,2.5664 6.7324,2.5664 9.2988,0c2.5664,-2.5664 2.5664,-6.7324 0,-9.2988z"/>
 </g>
</svg>