<svg width="30.000000000000004" height="30.000000000000004" xmlns="http://www.w3.org/2000/svg" fill="none">

 <g>
  <title>Layer 1</title>
  <path stroke="#a39b76" id="svg_1" fill="currentColor" d="m10.4158,7.0442c-0.0862,0.26525 -0.0014,0.54955 0.216,0.72433l1.9356,1.55579l-0.6515,2.39638c-0.0731,0.2691 0.0254,0.5489 0.2512,0.7131c0.2258,0.1639 0.5222,0.1711 0.7556,0.0184l2.0778,-1.3602l2.0778,1.3602c0.1121,0.0733 0.2386,0.1098 0.3648,0.1098c0.1369,0 0.2735,-0.0429 0.3907,-0.1282c0.2259,-0.164 0.3245,-0.444 0.2512,-0.7131l-0.6515,-2.39632l1.9355,-1.55573c0.2176,-0.17472 0.3024,-0.45908 0.2162,-0.72445c-0.0862,-0.26543 -0.322,-0.44561 -0.6006,-0.45908l-2.4805,-0.12094l-0.8815,-2.3216c-0.0989,-0.2608 -0.3432,-0.42938 -0.6222,-0.42938c-0.2789,0 -0.5232,0.16852 -0.6221,0.42932l-0.8816,2.32172l-2.4802,0.12088c-0.2788,0.01347 -0.5145,0.19365 -0.6007,0.45908zm3.3044,0.34769c0.2644,-0.01289 0.4959,-0.18111 0.5897,-0.42849l0.6905,-1.81846l0.6904,1.81863c0.094,0.24733 0.3256,0.41543 0.5897,0.42832l1.9428,0.09475l-1.5162,1.21857c-0.2063,0.16588 -0.2946,0.43805 -0.2252,0.69329l0.5103,1.877l-1.6275,-1.0654c-0.1107,-0.0724 -0.2375,-0.1087 -0.3644,-0.1087c-0.1268,0 -0.2538,0.0363 -0.3646,0.1087l-1.6273,1.0654l0.5103,-1.87689c0.0694,-0.25541 -0.019,-0.52763 -0.2253,-0.6934l-1.5162,-1.21851l1.943,-0.09481zm0.8114,-5.20294l0,-1.7202c0,-0.25887 0.2099,-0.46875 0.4688,-0.46875c0.2588,0 0.4687,0.20988 0.4687,0.46875l0,1.7202c0,0.25886 -0.2099,0.46875 -0.4687,0.46875c-0.2589,0 -0.4688,-0.20989 -0.4688,-0.46875zm2.8546,2.77722c-0.1732,-0.19236 -0.1576,-0.48879 0.0347,-0.66199l1.9169,-1.72606c0.1925,-0.17326 0.4888,-0.15773 0.6621,0.03469c0.1732,0.19237 0.1577,0.48879 -0.0347,0.66199l-1.917,1.72606c-0.0896,0.08068 -0.2017,0.12041 -0.3135,0.12041c-0.1281,0 -0.2559,-0.05227 -0.3485,-0.1551zm-7.3853,-2.35336c0.1732,-0.19242 0.4695,-0.20795 0.662,-0.03469l1.917,1.72606c0.1923,0.1732 0.2079,0.46963 0.0346,0.66199c-0.0925,0.10278 -0.2203,0.1551 -0.3485,0.1551c-0.1117,0 -0.2239,-0.03973 -0.3135,-0.12041l-1.917,-1.72606c-0.19238,-0.1732 -0.20785,-0.46962 -0.0346,-0.66199zm11.0132,5.15572l1.9356,1.55579l-0.6515,2.39638c-0.0731,0.2691 0.0254,0.5489 0.2512,0.7131c0.2256,0.1639 0.5221,0.171 0.7556,0.0184l2.0778,-1.3602l2.0778,1.3602c0.1121,0.0733 0.2386,0.1098 0.3648,0.1098c0.1369,0 0.2735,-0.0429 0.3907,-0.1282c0.2258,-0.1639 0.3243,-0.4438 0.2512,-0.7131l-0.6515,-2.39632l1.9355,-1.55573c0.2175,-0.17467 0.3023,-0.45902 0.2161,-0.72445c-0.0862,-0.26543 -0.322,-0.44561 -0.6005,-0.45908l-2.4805,-0.12094l-0.8814,-2.3216c-0.099,-0.2608 -0.3433,-0.42938 -0.6222,-0.42938c-0.2791,0 -0.5233,0.16852 -0.6223,0.42932l-0.8814,2.32166l-2.4803,0.12088c-0.2788,0.01348 -0.5146,0.19371 -0.6008,0.45914c-0.0862,0.26537 -0.0014,0.54973 0.2161,0.72433zm3.0883,-0.37664c0.2645,-0.01289 0.496,-0.18111 0.5899,-0.42855l0.6904,-1.81846l0.6904,1.8184c0.0939,0.2475 0.3255,0.41572 0.5898,0.42856l1.9428,0.09474l-1.516,1.21846c-0.2065,0.16582 -0.2949,0.43805 -0.2254,0.6934l0.5102,1.87696l-1.6275,-1.0654c-0.1107,-0.0724 -0.2375,-0.1086 -0.3644,-0.1086c-0.1269,0 -0.2538,0.0363 -0.3645,0.1087l-1.6274,1.0653l0.5103,-1.87685c0.0694,-0.25529 -0.0189,-0.52746 -0.2253,-0.69339l-1.5161,-1.21858l1.9428,-0.09469zm-23.85301,0.37664l1.93565,1.55579l-0.65151,2.39638c-0.07312,0.2691 0.02537,0.5489 0.25114,0.7131c0.22582,0.1639 0.52224,0.1711 0.75562,0.0184l2.07779,-1.3602l2.07786,1.3602c0.11203,0.0733 0.23853,0.1098 0.3648,0.1098c0.13688,0 0.27346,-0.0429 0.3907,-0.1282c0.22577,-0.1639 0.32432,-0.4438 0.25114,-0.7131l-0.65151,-2.39632l1.93553,-1.55573c0.21738,-0.17455 0.30228,-0.45885 0.21609,-0.72474c-0.08636,-0.26526 -0.32214,-0.44537 -0.60052,-0.45885l-2.48045,-0.12094l-0.88143,-2.32154c-0.09896,-0.2608 -0.34324,-0.42938 -0.62221,-0.42938c-0.27902,0 -0.5233,0.16852 -0.62226,0.42932l-0.88143,2.32166l-2.48027,0.12088c-0.27873,0.01348 -0.51451,0.19371 -0.60065,0.45885c-0.08642,0.26548 -0.00164,0.54996 0.21592,0.72462zm3.08836,-0.37664c0.26444,-0.01289 0.496,-0.18111 0.58987,-0.42855l0.69041,-1.81846l0.69035,1.8184c0.09392,0.2475 0.32549,0.41572 0.5898,0.42856l1.94279,0.09474l-1.51599,1.21846c-0.20643,0.16582 -0.2949,0.43805 -0.22541,0.6934l0.51029,1.87696l-1.6275,-1.0654c-0.11074,-0.0724 -0.2376,-0.1086 -0.36445,-0.1086c-0.12692,0 -0.25383,0.0363 -0.36451,0.1087l-1.62739,1.0653l0.5103,-1.87685c0.06943,-0.25529 -0.01893,-0.52746 -0.2253,-0.69339l-1.51611,-1.21858l1.94285,-0.09469zm26.58885,17.50651c-0.3298,-1.0651 -1.0054,-2.0215 -1.9022,-2.6931c-0.4294,-0.3215 -0.897,-0.5719 -1.3902,-0.7492c0.6838,-0.5367 1.1244,-1.3699 1.1244,-2.3047c0,-1.6152 -1.3141,-2.9292 -2.9292,-2.9292c-1.6152,0 -2.9293,1.314 -2.9293,2.9292c0,0.9337 0.4396,1.766 1.1221,2.3028c-0.9147,0.3265 -1.7251,0.9001 -2.3456,1.6731c-0.2901,-0.4058 -0.6246,-0.7826 -1.0007,-1.1228c-0.7579,-0.6853 -1.6473,-1.1887 -2.6051,-1.4861c1.0157,-0.6734 1.6872,-1.8263 1.6872,-3.1336c0,-2.0719 -1.6857,-3.7575 -3.7576,-3.7575c-2.0718,0 -3.7575,1.6856 -3.7575,3.7575c0,1.3073 0.6714,2.4602 1.6871,3.1336c-0.9579,0.2974 -1.8473,0.8008 -2.6051,1.4861c-0.37613,0.3402 -0.7107,0.717 -1.00068,1.1227c-0.62051,-0.773 -1.43086,-1.3466 -2.34563,-1.6732c0.68244,-0.5367 1.12207,-1.3691 1.12207,-2.3028c0,-1.6151 -1.31408,-2.9292 -2.92922,-2.9292c-1.61519,0 -2.92927,1.3141 -2.92927,2.9292c0,0.9347 0.44062,1.768 1.12441,2.3047c-0.49324,0.1773 -0.96082,0.4278 -1.39025,0.7493c-0.8969,0.6715 -1.57243,1.6279 -1.90225,2.693c-0.1524,0.4919 -0.06797,0.9912 0.23771,1.4059c0.30563,0.4147 0.75762,0.6429 1.27266,0.6429l6.48006,0l0,0.846c0,1.217 0.99006,2.2071 2.20709,2.2071l9.4576,0c1.2169,0 2.207,-0.9901 2.2071,-2.2071l0,-0.8457l6.48,0c0.5151,0 0.9671,-0.2284 1.2726,-0.6429c0.3057,-0.4148 0.3901,-0.9141 0.2377,-1.406zm-5.0972,-7.7387c1.0982,0 1.9917,0.8935 1.9917,1.9917c0,1.0983 -0.8935,1.9918 -1.9917,1.9918c-1.0983,0 -1.9918,-0.8935 -1.9918,-1.9918c0,-1.0982 0.8935,-1.9917 1.9918,-1.9917zm-12.649,0.2251c0,-1.555 1.2651,-2.82 2.82,-2.82c1.555,0 2.8201,1.265 2.8201,2.82c0,1.5545 -1.2643,2.8191 -2.8185,2.82c-0.0006,0 -0.0012,0 -0.0016,0c-0.0005,0 -0.001,0 -0.0016,0c-1.5542,-0.0009 -2.8184,-1.2656 -2.8184,-2.82zm-7.00896,-0.2253c1.09823,0 1.99172,0.8935 1.99172,1.9917c0,1.0983 -0.89349,1.9918 -1.99172,1.9918c-1.09828,0 -1.99177,-0.8935 -1.99177,-1.9918c0,-1.0982 0.89349,-1.9917 1.99177,-1.9917zm2.95395,8.85l-6.54088,0c-0.21574,0 -0.39,-0.088 -0.51803,-0.2617c-0.12808,-0.1737 -0.1606,-0.3662 -0.09679,-0.5723c0.57328,-1.8513 2.26189,-3.095 4.20175,-3.095c1.46737,0 2.80407,0.709 3.62619,1.9091c-0.32501,0.6314 -0.55265,1.312 -0.67224,2.0199zm12.87341,1.7834c-0.0001,0.7001 -0.5696,1.2696 -1.2696,1.2696l-9.4576,0c-0.70006,0 -1.26959,-0.5695 -1.26959,-1.2696l0,-1.2892c0.33938,-3.0579 2.91309,-5.3607 5.99679,-5.3614c0.0006,0 0.0011,0 0.0016,0c0.0006,0 0.0011,0 0.0016,0c3.0837,0.0008 5.6573,2.3035 5.9968,5.3614l0,1.2892zm7.9355,-2.0448c-0.128,0.1736 -0.3022,0.2616 -0.518,0.2616l-6.5408,0c-0.1197,-0.7079 -0.3473,-1.3885 -0.6723,-2.02c0.8222,-1.2001 2.1588,-1.909 3.6262,-1.909c1.9398,0 3.6284,1.2438 4.2017,3.0951c0.0638,0.206 0.0312,0.3985 -0.0968,0.5723z"/>
 </g>
</svg>