<svg width="32" height="40" xmlns="http://www.w3.org/2000/svg" fill="none">
 <defs>
  <filter id="svg_1_blur">
   <feGaussianBlur stdDeviation="0" in="SourceGraphic"/>
  </filter>
 </defs>
 <g>
  <title>Layer 1</title>
  <path stroke="#a6a182" id="svg_7" d="m-43.47635,-4.07593l6.01236,0l1.85787,-2.43743l1.85787,2.43743l6.01236,0l-4.86409,1.5064l1.85796,2.43743l-4.86409,-1.50644l-4.86409,1.50644l1.85796,-2.43743l-4.86409,-1.5064z" stroke-width="0" fill="#a6a182"/>
  <path id="svg_4" d="m-48.55613,-7.52475l0.56913,0l0.17587,-0.54067l0.17587,0.54067l0.56913,0l-0.46044,0.33415l0.17588,0.54067l-0.46044,-0.33416l-0.46044,0.33416l0.17588,-0.54067l-0.46044,-0.33415z" stroke-width="0" stroke="#a6a182" fill="#a6a182"/>
  <path id="svg_5" d="m-47.56845,-5.10641l0.54165,0l0.16737,-2.11244l0.16738,2.11244l0.54165,0l-0.43821,1.30554l0.16738,2.11244l-0.43821,-1.30558l-0.43821,1.30558l0.16738,-2.11244l-0.43821,-1.30554z" stroke-width="0" stroke="#a6a182" fill="#a6a182"/>
  <path opacity="0.65" id="svg_6" d="m-45.87529,-5.75371l6.7165,0l2.07545,-0.05417l2.07545,0.05417l6.7165,0l-5.43375,0.03348l2.07556,0.05417l-5.43375,-0.03348l-5.43375,0.03348l2.07556,-0.05417l-5.43375,-0.03348z" stroke-width="0" stroke="#a6a182" fill="#a6a182"/>
  <path stroke="#a6a182" filter="url(#svg_1_blur)" stroke-width="0" id="svg_1" fill="#a6a182" d="m18.14489,20.27813l1.0125,-0.7993c0.3098,-0.2446 0.5078,-0.6103 0.5433,-1.0032c0.012,-0.2097 0.1074,-0.3293 0.3263,-0.3103c0.4087,0.0756 0.8307,-0.0288 1.1571,-0.2865l0.5804,-0.4583c0.7082,-0.5592 1.1144,-1.3973 1.1144,-2.2995l0,-0.3892c1.1746,-0.1323 2.2143,-0.8143 2.8013,-1.8396c0.4615,0.1987 0.9616,0.3024 1.4682,0.3024c2.0461,0 3.7109,-1.6648 3.7109,-3.71099c0,-2.04617 -1.6648,-3.71093 -3.711,-3.71093c-0.0704,0 -0.1409,0.00203 -0.2113,0.00601c-0.1748,-1.88484 -1.7652,-3.36539 -3.6949,-3.36539c-0.7495,0 -1.4689,0.22289 -2.0784,0.63656c-0.5871,-1.32054 -1.9047,-2.19906 -3.3903,-2.19906c-0.8652,0 -1.6838,0.29359 -2.3438,0.83406c-0.6601,-0.54047 -1.4787,-0.83406 -2.3437,-0.83406c-1.4857,0 -2.8032,0.87859 -3.3903,2.19906c-0.60957,-0.41375 -1.32895,-0.63656 -2.07848,-0.63656c-0.21242,0 -0.42547,0.01813 -0.63328,0.05391c-0.31891,0.05492 -0.53289,0.35797 -0.47805,0.67687c0.05493,0.31891 0.35805,0.53274 0.67688,0.47805c0.14234,-0.02453 0.28851,-0.03695 0.43445,-0.03695c0.6575,0 1.2811,0.25078 1.75594,0.70617c0.39264,0.39961 1.13054,0.18773 1.25244,-0.35891c0.2865,-1.12445 1.2983,-1.90976 2.4604,-1.90976c0.6843,0 1.3262,0.26875 1.8075,0.75703c0.2812,0.29703 0.7915,0.29703 1.0726,-0.00024c0.4811,-0.48805 1.123,-0.75679 1.8074,-0.75679c1.1621,0 2.1738,0.78531 2.4603,1.90984c0.1219,0.54656 0.8597,0.75844 1.2524,0.35883c0.4748,-0.45539 1.0985,-0.70617 1.756,-0.70617c1.4001,0 2.5391,1.13906 2.5391,2.53906c0,0.03094 -0.0006,0.06179 -0.0017,0.09195c-0.0086,0.23195 0.0869,0.45148 0.2622,0.60242c0.1753,0.15094 0.4068,0.21289 0.6347,0.16992c0.1549,-0.02921 0.3138,-0.04398 0.472,-0.04398c1.4,0 2.539,1.13906 2.539,2.53906c0,1.39999 -1.139,2.53909 -2.539,2.53909c-0.4488,0 -0.8898,-0.1187 -1.2753,-0.3431c-0.1872,-0.1091 -0.4124,-0.1326 -0.6175,-0.0643c-0.2056,0.0684 -0.3722,0.2221 -0.4571,0.422c-0.3992,0.9403 -1.3168,1.5479 -2.3376,1.5479c-0.6844,0 -1.3262,-0.2688 -1.8075,-0.7569c-0.281,-0.2972 -0.7917,-0.2972 -1.0727,0.0001c-0.4811,0.488 -1.123,0.7567 -1.8073,0.7567c-0.6844,0 -1.3262,-0.2688 -1.8075,-0.7569c-0.281,-0.2972 -0.7917,-0.2972 -1.0727,0.0001c-0.4811,0.488 -1.123,0.7567 -1.8073,0.7567c-0.6844,0 -1.3262,-0.2687 -1.8074,-0.7569c-0.2811,-0.2971 -0.7918,-0.2971 -1.0728,0.0001c-0.4811,0.4881 -1.12295,0.7567 -1.80733,0.7567c-1.02078,0 -1.93836,-0.6075 -2.33765,-1.5479c-0.1636,-0.4106 -0.69782,-0.5888 -1.07461,-0.3577c-0.38555,0.2245 -0.82649,0.3431 -1.27524,0.3431c-1.40008,0 -2.53906,-1.139 -2.53906,-2.53902c0,-1.4 1.13906,-2.53883 2.53914,-2.53883c0.15828,0 0.31711,0.01477 0.47211,0.04406c0.46195,0.09961 0.92656,-0.30062 0.8968,-0.77195c-0.00118,-0.03063 -0.00172,-0.06148 -0.00172,-0.09242c0,-0.41852 0.10383,-0.83313 0.30023,-1.19899c0.15305,-0.28515 0.04594,-0.64031 -0.23922,-0.79343c-0.28515,-0.15305 -0.64023,-0.04594 -0.79336,0.23914c-0.2332,0.43445 -0.37726,0.91539 -0.42336,1.40765c-0.07039,-0.00398 -0.14101,-0.00601 -0.21148,-0.00601c-2.04617,0 -3.71094,1.66468 -3.71094,3.71093c0,2.04627 1.66469,3.71097 3.71094,3.71097c0.50656,0 1.00664,-0.1037 1.4682,-0.3024c0.58703,1.0254 1.6268,1.7074 2.80125,1.8396l0,0.3893c0,0.9021 0.40617,1.7403 1.11438,2.2994l0.58042,0.4582c0.3265,0.2578 0.7482,0.3622 1.1572,0.2866c0.2187,-0.0191 0.3142,0.1006 0.3262,0.3103c0.0356,0.393 0.2335,0.7586 0.5433,1.0032l1.0126,0.7994c0.236,0.1863 0.3714,0.4657 0.3714,0.7665l0,0.9758c0,0.4399 -0.2965,0.8275 -0.721,0.9426l-1.7801,0.4823c-0.656,0.1778 -1.23346,0.5814 -1.6258,1.1364l-2.46172,3.4817c-0.22555,0.319 -0.34242,0.6941 -0.33781,1.0848l0.00039,0.0395c0.00343,0.2954 -0.18313,0.5549 -0.46407,0.6458c-0.37617,0.1217 -0.70906,0.3664 -0.93734,0.6893l-2.94602,4.1667c-0.65304,0.9237 -0.51312,2.1927 0.32532,2.9519c0.88257,0.7992 2.23547,0.7678 3.08015,-0.0711l0.2918,-0.2899c0.27312,-0.2713 0.41602,-0.6473 0.39219,-1.0315c-0.00703,-0.1706 0.15859,-0.185 0.29039,-0.1769c0.34898,-0.0046 0.6775,-0.1424 0.925,-0.3883l1.21906,-1.2109l-0.93726,3.569c-0.28743,1.0945 0.28921,2.2342 1.34125,2.651c0.27039,0.1071 0.54953,0.1579 0.82447,0.1579c0.8511,0 1.6607,-0.4879 2.036,-1.3062l1.0023,-2.1846c0.1464,-0.3189 0.1838,-0.6832 0.105,-1.0254c-0.0419,-0.1824 0.0425,-0.3746 0.2052,-0.4671l0.0584,-0.0331c0.2932,-0.1665 0.5225,-0.4167 0.6634,-0.7234l1.304,-2.8421c0.169,-0.3685 0.1645,-0.789 -0.012,-1.1537c-0.0554,-0.1463 0.0217,-0.2337 0.1636,-0.2684c0.1213,-0.037 0.2346,-0.0918 0.3392,-0.1594c0.1046,0.0676 0.2179,0.1225 0.3393,0.1594c0.1421,0.035 0.2185,0.122 0.1634,0.2683c-0.1767,0.3648 -0.181,0.7853 -0.012,1.1538l1.304,2.8423c0.1408,0.3066 0.3702,0.5567 0.6635,0.7233l0.0581,0.033c0.1629,0.0926 0.2472,0.2847 0.2052,0.4673c-0.0787,0.3422 -0.0413,0.7064 0.1051,1.0252l1.0023,2.1847c0.3755,0.8184 1.185,1.3063 2.0361,1.3063c0.2748,0 0.5541,-0.051 0.8244,-0.158c1.052,-0.4167 1.6287,-1.5564 1.3413,-2.6509l-0.9373,-3.5689l1.219,1.2107c0.2476,0.2459 0.5761,0.3839 0.9251,0.3884c0.1319,-0.008 0.2972,0.0063 0.2903,0.1769c-0.0239,0.3841 0.119,0.7601 0.3922,1.0315l0.2918,0.2898c0.4355,0.4327 1.0061,0.6505 1.5778,0.6505c0.5369,0 1.0749,-0.1923 1.5022,-0.5793c0.8385,-0.7592 0.9784,-2.0282 0.3253,-2.9518l-2.946,-4.1668c-0.2283,-0.3228 -0.5611,-0.5677 -0.9373,-0.6893c-0.281,-0.0909 -0.4675,-0.3504 -0.4642,-0.6457l0.0005,-0.0396c0.0046,-0.3906 -0.1123,-0.7658 -0.3378,-1.0849l-0.8824,-1.2479c-0.1869,-0.2643 -0.5524,-0.3271 -0.8167,-0.1402c-0.2643,0.1869 -0.3271,0.5525 -0.1402,0.8167l0.8824,1.2479c0.0821,0.1162 0.1246,0.2527 0.123,0.3949l-0.0006,0.0396c-0.0091,0.8115 0.5033,1.5244 1.2753,1.7741c0.1369,0.0443 0.2581,0.1335 0.3412,0.2509l2.946,4.1668c0.3111,0.44 0.2446,1.0447 -0.155,1.4065c-0.4206,0.3808 -1.0653,0.366 -1.4678,-0.0339l-0.2916,-0.2897c-0.0338,-0.0336 -0.0514,-0.08 -0.0485,-0.1274c0.0226,-0.3636 -0.1065,-0.7252 -0.3543,-0.9922c-0.2478,-0.2671 -0.5988,-0.4229 -0.9629,-0.4275c-0.0731,-0.0033 -0.1883,0.0138 -0.242,-0.0497l-4.4712,-4.4411c-0.0817,-0.0714 -0.0838,-0.1968 -0.0889,-0.2966c-0.0538,-0.7544 -0.6866,-1.3433 -1.4422,-1.3433c-0.0022,0 -0.0045,0.0002 -0.007,0c-0.0729,0 -0.1414,-0.0283 -0.1932,-0.0795l-0.6837,-0.6792c-0.3463,-0.3439 -0.535,-0.8208 -0.5181,-1.3081l0.001,-0.0262c0.0165,-0.4749 -0.1561,-0.9248 -0.4864,-1.2666c-0.3301,-0.3418 -0.7735,-0.5301 -1.2487,-0.5301c-0.4752,0 -0.9187,0.1883 -1.2488,0.5301c-0.3302,0.3418 -0.5028,0.7917 -0.4863,1.267l0.001,0.0254c0.0169,0.4877 -0.1718,0.9646 -0.5181,1.3085l-0.6837,0.679c-0.0518,0.0514 -0.1203,0.0797 -0.1932,0.0797c-0.0022,0.0002 -0.0046,0 -0.007,0c-0.7555,0 -1.3884,0.589 -1.4422,1.3435c-0.0051,0.0998 -0.0072,0.2249 -0.0888,0.2964l-4.47142,4.4411c-0.05328,0.0633 -0.16914,0.0463 -0.24179,0.0496c-0.36422,0.0047 -0.71524,0.1604 -0.96297,0.4275c-0.24781,0.267 -0.37688,0.6286 -0.3543,0.9923c0.00289,0.0474 -0.01469,0.0938 -0.04844,0.1274l-0.29171,0.2897c-0.4025,0.3999 -1.04727,0.4147 -1.46774,0.0339c-0.39961,-0.3618 -0.46625,-0.9665 -0.155,-1.4066l2.94602,-4.1667c0.08304,-0.1175 0.20422,-0.2067 0.34117,-0.251c0.77195,-0.2497 1.28437,-0.9626 1.27523,-1.7742l-0.00054,-0.0395c-0.00164,-0.1422 0.04086,-0.2787 0.12296,-0.3948l2.46173,-3.4816c0.2355,-0.333 0.5818,-0.5751 0.9755,-0.6818l1.78,-0.4824c0.9341,-0.2533 1.5864,-1.106 1.5864,-2.0738l0,-0.9758c0,-0.6617 -0.2978,-1.2763 -0.8171,-1.6863l-1.0126,-0.7994c-0.0584,-0.046 -0.0956,-0.1149 -0.1024,-0.1889l-0.0061,-0.0674c-0.0364,-0.4035 -0.2425,-0.7755 -0.5653,-1.0203c-0.323,-0.2449 -0.7368,-0.343 -1.135,-0.2694c-0.0767,0.0143 -0.1563,-0.0054 -0.2179,-0.054l-0.5804,-0.4582c-0.42495,-0.3354 -0.6687,-0.8383 -0.6687,-1.3797l0,-0.4408c0.5823,-0.1196 1.1255,-0.3771 1.5898,-0.7573c0.0636,0.052 0.129,0.101 0.1954,0.1484l0,0.502c0,0.3008 0.1353,0.5802 0.3715,0.7666l2.7895,2.2018c0.3919,0.3093 0.8615,0.4639 1.3311,0.4639c0.4697,0 0.9393,-0.1546 1.3311,-0.4639l2.7896,-2.2018c0.2361,-0.1864 0.3715,-0.4658 0.3715,-0.7665l0,-0.5021c0.0664,-0.0474 0.1318,-0.0964 0.1953,-0.1484c0.4646,0.3802 1.0076,0.6377 1.5899,0.7573l0,0.4408c0,0.5413 -0.2437,1.0442 -0.6687,1.3796l-0.5805,0.4583c-0.0614,0.0485 -0.1406,0.0683 -0.2178,0.0539c-0.3983,-0.0736 -0.8121,0.0245 -1.135,0.2694c-0.3228,0.2449 -0.5289,0.6168 -0.5654,1.0203l-0.006,0.0675c-0.0068,0.074 -0.044,0.1429 -0.1024,0.1889l-1.0126,0.7994c-0.5193,0.41 -0.8172,1.0246 -0.8172,1.6863l0,0.9758c0,0.9678 0.6525,1.8205 1.5865,2.0736l1.7801,0.4823c0.3937,0.1068 0.7401,0.3489 0.9755,0.6818c0.1878,0.2661 0.5554,0.3257 0.8166,0.1402c0.2643,-0.1868 0.3271,-0.5524 0.1402,-0.8167c-0.3923,-0.555 -0.9697,-0.9586 -1.6257,-1.1363l-1.7801,-0.4824c-0.4246,-0.1151 -0.7211,-0.5026 -0.7211,-0.9426l0,-0.9758c0.0001,-0.3007 0.1355,-0.58 0.3716,-0.7664zm-1.2889,8.5658l0.6839,0.6793c0.2742,0.2724 0.6411,0.4232 1.0246,0.4199c0.2033,-0.0054 0.295,0.1973 0.283,0.3761c0.0248,0.3488 0.1751,0.6767 0.4234,0.9233l1.6131,1.6023l1.443,5.4946c0.1369,0.5219 -0.138,1.0652 -0.6396,1.2639c-0.528,0.2091 -1.127,-0.0314 -1.3637,-0.5474l-1.0024,-2.1848c-0.0391,-0.0851 -0.049,-0.1823 -0.028,-0.2737c0.1573,-0.6833 -0.1587,-1.4025 -0.7684,-1.7489l-0.0582,-0.0331c-0.0783,-0.0445 -0.1397,-0.1114 -0.1773,-0.1932l-1.3038,-2.8419c-0.0227,-0.0494 -0.0221,-0.1058 0.0016,-0.1547c0.1725,-0.3564 0.1805,-0.7689 0.0217,-1.1318c-0.1586,-0.3628 -0.4669,-0.6369 -0.846,-0.7522l-0.053,-0.0161c-0.0013,-0.0004 -0.0023,-0.0011 -0.0036,-0.0015l0.5214,-1.1365c0.071,0.0894 0.1467,0.1753 0.2283,0.2564zm-8.32372,9.4956l1.44292,-5.4946l1.6133,-1.6024c0.2482,-0.2465 0.3985,-0.5744 0.4232,-0.9233c-0.0121,-0.1816 0.0812,-0.3842 0.2889,-0.376c0.3843,0 0.746,-0.149 1.0189,-0.42l0.6837,-0.6791c0.577,-0.5731 0.8917,-1.368 0.8634,-2.1811l-0.001,-0.0254c-0.0053,-0.1544 0.0508,-0.3006 0.1581,-0.4117c0.2109,-0.2282 0.6008,-0.2282 0.8118,0c0.1072,0.1111 0.1634,0.2573 0.158,0.4113l-0.0009,0.0262c-0.0053,0.1528 0.0015,0.305 0.0198,0.4552l-1.1513,2.5094c-0.0278,0.0678 -0.0984,0.0981 -0.1651,0.1139c-0.3789,0.1152 -0.6872,0.3894 -0.8458,0.7522c-0.1586,0.3628 -0.1507,0.7753 0.0218,1.1319c0.0237,0.0488 0.0243,0.105 0.0017,0.1543l-1.3038,2.8419c-0.0377,0.082 -0.0991,0.1489 -0.1774,0.1934l-0.0584,0.0332c-0.6096,0.3464 -0.9255,1.0655 -0.7683,1.7487c0.0211,0.0914 0.0112,0.1887 -0.028,0.2739l-1.0023,2.1847c-0.2368,0.5161 -0.8357,0.7566 -1.36377,0.5474c-0.50148,-0.1989 -0.7764,-0.7422 -0.63945,-1.264zm7.50242,-21.7175c-0.3563,0.2812 -0.8539,0.2812 -1.2102,0l-2.4493,-1.9334c0.2318,0.0447 0.4693,0.0684 0.7107,0.0684c0.865,0 1.6836,-0.2936 2.3437,-0.8341c0.6602,0.5404 1.4788,0.8341 2.3438,0.8341c0.2414,0 0.4789,-0.0237 0.7106,-0.0684l-2.4493,1.9334z"/>
 </g>
</svg>