<svg xmlns="http://www.w3.org/2000/svg" width="36" height="36" viewBox="0 0 36 36" fill="none"><path d="M5.73804 27.389C5.50511 26.9986 5.29895 26.5928 5.12097 26.1744C5.0579 26.0221 5.05757 25.851 5.12003 25.6984C5.1825 25.5458 5.30271 25.4241 5.4545 25.3597C5.60629 25.2953 5.77737 25.2935 5.93049 25.3546C6.08362 25.4158 6.20639 25.5349 6.27209 25.6862C6.42763 26.0525 6.6081 26.4077 6.81226 26.7494C6.89535 26.8918 6.91884 27.0612 6.87762 27.2208C6.8364 27.3804 6.73381 27.5173 6.59217 27.6016C6.45053 27.686 6.28132 27.7109 6.12135 27.6711C5.96138 27.6313 5.82362 27.5299 5.73804 27.389Z" fill="currentColor"></path><path d="M15.0874 33.4687C12.002 32.9331 9.17369 31.411 7.0271 29.131C6.91794 29.0075 6.86196 28.846 6.87134 28.6814C6.88071 28.5169 6.95469 28.3627 7.07717 28.2525C7.19965 28.1423 7.36072 28.0848 7.52532 28.0928C7.68992 28.1007 7.84473 28.1733 7.95606 28.2948C9.91998 30.372 12.5044 31.7565 15.3218 32.2407C15.4836 32.2728 15.6262 32.3677 15.7184 32.5045C15.8106 32.6413 15.845 32.809 15.8141 32.9711C15.7831 33.1331 15.6894 33.2764 15.5533 33.3696C15.4171 33.4628 15.2497 33.4985 15.0874 33.4687Z" fill="currentColor"></path><path d="M34.4911 21.9038H2.0863C1.92054 21.9038 1.76157 21.9697 1.64436 22.0869C1.52715 22.2041 1.4613 22.363 1.4613 22.5288C1.4613 22.6946 1.52715 22.8535 1.64436 22.9708C1.76157 23.088 1.92054 23.1538 2.0863 23.1538H2.71458C3.10978 29.9868 9.94622 35.4451 18.2942 35.4451C26.6427 35.4451 33.4792 29.9868 33.8744 23.1538H34.4911C34.6568 23.1538 34.8158 23.088 34.933 22.9708C35.0502 22.8535 35.1161 22.6946 35.1161 22.5288C35.1161 22.363 35.0502 22.2041 34.933 22.0869C34.8158 21.9697 34.6568 21.9038 34.4911 21.9038ZM18.2942 34.1951C10.6402 34.1951 4.36748 29.2968 3.96655 23.1538H32.6225C32.2215 29.2969 25.9482 34.1951 18.2942 34.1951Z" fill="currentColor"></path><path d="M25.5891 8.63354C24.783 5.99474 24.755 5.44817 23.9454 4.84998C19.9324 1.87938 19.4066 1.24219 17.7803 1.24219H17.7784C12.3594 1.0377 9.71871 1.1157 5.6575 1.24066C5.55393 1.03515 5.3955 0.86231 5.19976 0.741281C5.00402 0.620252 4.7786 0.555755 4.54846 0.554932H2.13391C1.80252 0.555362 1.48483 0.687196 1.2505 0.921523C1.01618 1.15585 0.884341 1.47354 0.883911 1.80493V9.52527C0.884341 9.85666 1.01618 10.1744 1.2505 10.4087C1.48483 10.643 1.80252 10.7748 2.13391 10.7753H4.54846C4.77508 10.7744 4.99719 10.7118 5.19088 10.5941C5.38457 10.4765 5.54252 10.3083 5.64774 10.1075H7.01125C7.50437 10.1075 7.55634 10.3574 8.44069 11.1049C9.94753 12.3448 11.7297 13.2052 13.6378 13.614C13.9906 13.7117 14.341 13.8087 14.6907 13.918C15.0361 14.0254 15.3822 14.1591 15.7765 14.3104C17.0019 14.7979 18.2604 15.1979 19.5424 15.5073C20.2733 15.6836 21.2696 15.2308 21.1262 13.8612C21.3932 13.8699 21.6544 13.7819 21.8617 13.6134C24.7029 11.2712 26.1712 10.541 25.5891 8.63354ZM2.13391 9.52527V1.80493H4.54846V9.52527H2.13391ZM19.8365 11.2605C19.1017 10.8439 18.3436 10.4695 17.566 10.1393C17.1575 9.91149 16.0415 9.28249 16.028 8.81299C16.026 8.75046 16.0366 8.68818 16.0593 8.62986C16.0819 8.57155 16.1161 8.51841 16.1598 8.47361L17.6466 6.95201C17.6613 6.93586 17.6797 6.92357 17.7002 6.91623C17.7208 6.90888 17.7428 6.90671 17.7644 6.90989C18.5158 7.09 19.2476 7.34413 19.9488 7.66856C20.6208 7.98161 21.1655 8.51509 21.4924 9.1804C21.0774 9.37971 20.7128 9.67038 20.426 10.0306C20.1392 10.3908 19.9377 10.8113 19.8365 11.2605ZM21.2129 12.5288C21.1072 12.3084 21.0514 12.0674 21.0493 11.8229C21.0472 11.5785 21.099 11.3366 21.2008 11.1143C21.3027 10.8921 21.4522 10.695 21.6388 10.5371C21.8254 10.3791 22.0444 10.2641 22.2804 10.2003C22.3902 10.1607 22.491 10.0996 22.577 10.0206C22.663 9.94165 22.7324 9.84639 22.7812 9.74036C22.8301 9.63433 22.8573 9.51966 22.8615 9.40299C22.8656 9.28633 22.8465 9.17001 22.8053 9.06079C22.3863 7.93832 21.5409 7.02682 20.453 6.52478C19.6636 6.1588 18.8382 5.8759 17.9902 5.68066C17.7671 5.63997 17.5374 5.655 17.3214 5.72442C17.1055 5.79384 16.9101 5.91551 16.7524 6.07861L15.2669 7.599C15.1056 7.76445 14.9792 7.96063 14.8952 8.17589C14.8112 8.39114 14.7714 8.62108 14.778 8.85205C14.813 9.96499 16.0265 10.7121 16.9569 11.2306C17.7517 11.6738 18.8996 12.035 19.2665 12.4281C19.6864 12.9396 19.9116 13.5834 19.9019 14.2451L19.839 14.2927C18.6086 13.9959 17.401 13.6118 16.2251 13.1434C15.8028 12.9817 15.4317 12.8395 15.0618 12.7241C14.6999 12.6118 14.3367 12.5111 13.9717 12.4098C12.2382 12.0474 10.6177 11.2723 9.24759 10.1503C8.45022 9.47571 8.0759 8.85754 7.01126 8.85754H5.79846V2.48669C10.8878 2.3354 12.0678 2.31012 17.7534 2.49158C18.9244 2.49158 19.1621 2.86408 23.202 5.85523C23.6668 6.19652 23.6642 6.61008 24.394 8.99854C24.68 9.93703 24.0822 10.1635 21.2129 12.5288Z" fill="currentColor"></path><path d="M21.9281 16.7994C22.2733 16.7994 22.5531 16.5196 22.5531 16.1744C22.5531 15.8292 22.2733 15.5494 21.9281 15.5494C21.5829 15.5494 21.3031 15.8292 21.3031 16.1744C21.3031 16.5196 21.5829 16.7994 21.9281 16.7994Z" fill="currentColor"></path><path d="M19.6625 18.6356C20.0077 18.6356 20.2875 18.3558 20.2875 18.0106C20.2875 17.6654 20.0077 17.3856 19.6625 17.3856C19.3173 17.3856 19.0375 17.6654 19.0375 18.0106C19.0375 18.3558 19.3173 18.6356 19.6625 18.6356Z" fill="currentColor"></path><path d="M23.3344 19.2994C23.6796 19.2994 23.9594 19.0196 23.9594 18.6744C23.9594 18.3292 23.6796 18.0494 23.3344 18.0494C22.9892 18.0494 22.7094 18.3292 22.7094 18.6744C22.7094 19.0196 22.9892 19.2994 23.3344 19.2994Z" fill="currentColor"></path><path d="M21.3031 21.1744C21.6483 21.1744 21.9281 20.8946 21.9281 20.5494C21.9281 20.2042 21.6483 19.9244 21.3031 19.9244C20.9579 19.9244 20.6781 20.2042 20.6781 20.5494C20.6781 20.8946 20.9579 21.1744 21.3031 21.1744Z" fill="currentColor"></path></svg>