<svg xmlns="http://www.w3.org/2000/svg" width="18" height="20" viewBox="0 0 18 20" fill="none"><path d="M17.0783 8.57429L2.45581 0.21581C2.20371 0.0718095 1.92305 0 1.64238 0C1.63667 0 1.63105 0.000761905 1.62543 0.000761905C1.58771 0.00114286 1.5501 0.00304762 1.51257 0.006C1.49562 0.00733333 1.47876 0.00914286 1.46181 0.0110476C1.43248 0.0142857 1.40324 0.018381 1.3741 0.0232381C1.36352 0.0250476 1.35286 0.025619 1.34229 0.027619L1.34286 0.028381C1.16067 0.062 0.982857 0.12619 0.817619 0.222095C0.311524 0.515714 0 1.05657 0 1.64162V18.3585C0 18.9435 0.311524 19.4844 0.817619 19.778C0.982762 19.8739 1.16057 19.9382 1.34276 19.9718L1.34229 19.9725C1.35181 19.9743 1.36143 19.9749 1.37086 19.9764C1.40219 19.9817 1.43362 19.9861 1.46514 19.9894C1.48095 19.9911 1.49667 19.9929 1.51248 19.9941C1.54952 19.997 1.58648 19.9988 1.62362 19.9992C1.6299 19.9993 1.6361 20.0001 1.64238 20.0001C1.92305 20.0001 2.20371 19.9283 2.45581 19.7843L17.0783 11.4257C17.5895 11.1334 17.905 10.5898 17.905 10.0008V10.0004V10V9.99962V9.99924C17.905 9.41028 17.5895 8.86667 17.0783 8.57429ZM11.2956 6.91438L9.84171 8.82171L6.14267 3.96876L11.2956 6.91438ZM16.3693 10.1854L6.14267 16.0312L12.5459 7.63067L16.3692 9.81609C16.4354 9.8539 16.4766 9.92476 16.4766 10.0007C16.4765 10.0769 16.4353 10.1477 16.3693 10.1854Z" fill="currentColor"></path></svg>