<svg xmlns="http://www.w3.org/2000/svg" width="40" height="30" viewBox="0 0 40 30" fill="none"><path fill-rule="evenodd" clip-rule="evenodd" d="M38.2422 27.9688C37.9186 27.9688 37.6562 27.7064 37.6562 27.3828V18.3203C37.6562 18.2294 37.6351 18.1396 37.5944 18.0583L36.4844 15.8382V4.96094C36.4844 3.54357 37.4909 2.3613 38.8281 2.08986V27.3828C38.8281 27.7064 38.5658 27.9688 38.2422 27.9688ZM36.4844 27.3828C36.4844 28.3536 37.2714 29.1406 38.2422 29.1406C39.213 29.1406 40 28.3536 40 27.3828V1.44532C40 1.12171 39.7377 0.859379 39.4141 0.859379C37.1488 0.859379 35.3125 2.6957 35.3125 4.96094V15.9766C35.3125 16.0675 35.3337 16.1572 35.3744 16.2386L36.4844 18.4586V27.3828Z" fill="currentColor"></path><path fill-rule="evenodd" clip-rule="evenodd" d="M5.85938 15C5.85938 22.8096 12.1904 29.1406 20 29.1406C27.8096 29.1406 34.1406 22.8096 34.1406 15C34.1406 7.19037 27.8096 0.859364 20 0.859364C12.1904 0.859364 5.85938 7.19037 5.85938 15ZM20 27.9687C12.8376 27.9687 7.03125 22.1624 7.03125 15C7.03125 7.83758 12.8376 2.03124 20 2.03124C27.1624 2.03124 32.9687 7.83758 32.9687 15C32.9687 22.1624 27.1624 27.9687 20 27.9687Z" fill="currentColor"></path><path fill-rule="evenodd" clip-rule="evenodd" d="M20 23.2813C15.4264 23.2813 11.7187 19.5736 11.7187 15C11.7187 13.1073 12.3535 11.3646 13.4216 9.96997C13.6184 9.71307 13.5696 9.34529 13.3127 9.14852C13.0558 8.95175 12.6881 9.0005 12.4913 9.25741C11.2721 10.8492 10.5468 12.8406 10.5468 15C10.5468 20.2208 14.7792 24.4531 20 24.4531C25.2208 24.4531 29.4531 20.2208 29.4531 15C29.4531 9.77915 25.2208 5.54689 20 5.54689C17.8405 5.54689 15.8492 6.27215 14.2574 7.49125C14.0005 7.68802 13.9518 8.0558 14.1485 8.3127C14.3453 8.56961 14.7131 8.61837 14.97 8.4216C16.3645 7.35351 18.1072 6.71877 20 6.71877C24.5736 6.71877 28.2812 10.4264 28.2812 15C28.2812 19.5736 24.5736 23.2813 20 23.2813Z" fill="currentColor"></path><path fill-rule="evenodd" clip-rule="evenodd" d="M12.8906 15C12.8906 18.9264 16.0736 22.1094 20 22.1094C23.9263 22.1094 27.1094 18.9264 27.1094 15C27.1094 11.0736 23.9263 7.89063 20 7.89063C16.0736 7.89063 12.8906 11.0736 12.8906 15ZM20 20.9375C16.7208 20.9375 14.0625 18.2792 14.0625 15C14.0625 11.7208 16.7208 9.0625 20 9.0625C23.2791 9.0625 25.9375 11.7208 25.9375 15C25.9375 18.2792 23.2791 20.9375 20 20.9375Z" fill="currentColor"></path><path fill-rule="evenodd" clip-rule="evenodd" d="M2.92969 6.71875C3.25329 6.71875 3.51562 6.45642 3.51562 6.13281V1.44531C3.51562 1.12171 3.25329 0.859375 2.92969 0.859375C2.60608 0.859375 2.34375 1.12171 2.34375 1.44531V6.13281C2.34375 6.45642 2.60608 6.71875 2.92969 6.71875Z" fill="currentColor"></path><path fill-rule="evenodd" clip-rule="evenodd" d="M2.92969 27.9688C2.6061 27.9688 2.34375 27.7064 2.34375 27.3828V11.6797C2.34375 11.5887 2.32257 11.499 2.2819 11.4177L1.48119 9.81618L0.957109 10.0782L1.48119 9.81617C1.27779 9.40938 1.17187 8.96081 1.17187 8.50602V1.44532C1.17187 1.12171 0.909542 0.859379 0.585937 0.859379C0.262333 0.859379 0 1.12171 0 1.44532V8.50602C0 9.14279 0.148299 9.77078 0.433031 10.3402L1.17188 11.818V27.3828C1.17188 28.3536 1.9589 29.1406 2.92969 29.1406C3.90048 29.1406 4.6875 28.3536 4.6875 27.3828V11.818L5.42635 10.3402L4.90227 10.0782L5.42635 10.3402C5.71108 9.77078 5.85938 9.14279 5.85938 8.50602V1.44532C5.85938 1.12171 5.59704 0.859379 5.27344 0.859379C4.94983 0.859379 4.6875 1.12171 4.6875 1.44532V8.50602C4.6875 8.96081 4.58158 9.40938 4.37819 9.81617L4.89786 10.076L4.37818 9.81618L3.57748 11.4177C3.5368 11.499 3.51563 11.5887 3.51563 11.6797V27.3828C3.51563 27.7064 3.25327 27.9688 2.92969 27.9688Z" fill="currentColor"></path><path fill-rule="evenodd" clip-rule="evenodd" d="M0 6.13281C0 6.45642 0.262333 6.71875 0.585937 6.71875H5.27344C5.59704 6.71875 5.85938 6.45642 5.85938 6.13281C5.85938 5.80921 5.59704 5.54688 5.27344 5.54688H0.585937C0.262333 5.54688 0 5.80921 0 6.13281Z" fill="currentColor"></path></svg>