<svg xmlns="http://www.w3.org/2000/svg" width="48" height="36" viewBox="0 0 48 36" fill="none"><path d="M36.4583 0.25C29.8037 0.25 25 5.7438 25.0002 13.8784C25.0428 25.6974 33.9278 34.0538 46.7456 35.6586C47.9348 35.8075 48.3933 34.1601 47.2982 33.6732C42.3799 31.4862 39.8959 28.7111 39.5751 25.9642C39.3354 23.912 40.451 22.1143 41.8518 21.7777C45.4834 20.905 47.9167 16.3825 47.9167 11.7083C47.9167 5.3801 42.7866 0.25 36.4583 0.25Z" fill="currentColor"></path><path d="M11.4583 0.25C4.80376 0.25 2.28922e-05 5.7438 0.000183109 13.8784C0.0428009 25.6974 8.92777 34.0538 21.7456 35.6586C22.9348 35.8075 23.3933 34.1601 22.2982 33.6732C17.3799 31.4862 14.8959 28.7111 14.5751 25.9642C14.3354 23.912 15.451 22.1143 16.8518 21.7777C20.4834 20.905 22.9167 16.3825 22.9167 11.7083C22.9167 5.3801 17.7866 0.25 11.4583 0.25Z" fill="currentColor"></path></svg>