<svg xmlns="http://www.w3.org/2000/svg" width="32" height="40" viewBox="0 0 32 40" fill="none"><path d="M18.7152 19.4273L19.7277 18.628C20.0375 18.3834 20.2355 18.0177 20.271 17.6248C20.283 17.4151 20.3784 17.2955 20.5973 17.3145C21.006 17.3901 21.428 17.2857 21.7544 17.028L22.3348 16.5697C23.043 16.0105 23.4492 15.1724 23.4492 14.2702V13.881C24.6238 13.7487 25.6635 13.0667 26.2505 12.0414C26.712 12.2401 27.2121 12.3438 27.7187 12.3438C29.7648 12.3438 31.4296 10.679 31.4296 8.63281C31.4296 6.58664 29.7648 4.92188 27.7186 4.92188C27.6482 4.92188 27.5777 4.92391 27.5073 4.92789C27.3325 3.04305 25.7421 1.5625 23.8124 1.5625C23.0629 1.5625 22.3435 1.78539 21.734 2.19906C21.1469 0.878516 19.8293 0 18.3437 0C17.4785 0 16.6599 0.293594 15.9999 0.834062C15.3398 0.293594 14.5212 0 13.6562 0C12.1705 0 10.853 0.878594 10.2659 2.19906C9.65633 1.78531 8.93695 1.5625 8.18742 1.5625C7.975 1.5625 7.76195 1.58063 7.55414 1.61641C7.23523 1.67133 7.02125 1.97438 7.07609 2.29328C7.13102 2.61219 7.43414 2.82602 7.75297 2.77133C7.89531 2.7468 8.04148 2.73438 8.18742 2.73438C8.84492 2.73438 9.46852 2.98516 9.94336 3.44055C10.336 3.84016 11.0739 3.62828 11.1958 3.08164C11.4823 1.95719 12.4941 1.17188 13.6562 1.17188C14.3405 1.17188 14.9824 1.44063 15.4637 1.92891C15.7449 2.22594 16.2552 2.22594 16.5363 1.92867C17.0174 1.44062 17.6593 1.17188 18.3437 1.17188C19.5058 1.17188 20.5175 1.95719 20.804 3.08172C20.9259 3.62828 21.6637 3.84016 22.0564 3.44055C22.5312 2.98516 23.1549 2.73438 23.8124 2.73438C25.2125 2.73438 26.3515 3.87344 26.3515 5.27344C26.3515 5.30438 26.3509 5.33523 26.3498 5.36539C26.3412 5.59734 26.4367 5.81687 26.612 5.96781C26.7873 6.11875 27.0188 6.1807 27.2467 6.13773C27.4016 6.10852 27.5605 6.09375 27.7187 6.09375C29.1187 6.09375 30.2577 7.23281 30.2577 8.63281C30.2577 10.0328 29.1187 11.1719 27.7187 11.1719C27.2699 11.1719 26.8289 11.0532 26.4434 10.8288C26.2562 10.7197 26.031 10.6962 25.8259 10.7645C25.6203 10.8329 25.4537 10.9866 25.3688 11.1865C24.9696 12.1268 24.052 12.7344 23.0312 12.7344C22.3468 12.7344 21.705 12.4656 21.2237 11.9775C20.9427 11.6803 20.432 11.6803 20.151 11.9776C19.6699 12.4656 19.028 12.7343 18.3437 12.7343C17.6593 12.7343 17.0175 12.4655 16.5362 11.9774C16.2552 11.6802 15.7445 11.6802 15.4635 11.9775C14.9824 12.4655 14.3405 12.7342 13.6562 12.7342C12.9718 12.7342 12.33 12.4655 11.8488 11.9773C11.5677 11.6802 11.057 11.6802 10.776 11.9774C10.2949 12.4655 9.65305 12.7341 8.96867 12.7341C7.94789 12.7341 7.03031 12.1266 6.63102 11.1862C6.46742 10.7756 5.9332 10.5974 5.55641 10.8285C5.17086 11.053 4.72992 11.1716 4.28117 11.1716C2.88109 11.1716 1.74211 10.0326 1.74211 8.63258C1.74211 7.23258 2.88117 6.09375 4.28125 6.09375C4.43953 6.09375 4.59836 6.10852 4.75336 6.13781C5.21531 6.23742 5.67992 5.83719 5.65016 5.36586C5.64898 5.33523 5.64844 5.30438 5.64844 5.27344C5.64844 4.85492 5.75227 4.44031 5.94867 4.07445C6.10172 3.7893 5.99461 3.43414 5.70945 3.28102C5.4243 3.12797 5.06922 3.23508 4.91609 3.52016C4.68289 3.95461 4.53883 4.43555 4.49273 4.92781C4.42234 4.92383 4.35172 4.9218 4.28125 4.9218C2.23508 4.9218 0.570312 6.58648 0.570312 8.63273C0.570312 10.679 2.235 12.3437 4.28125 12.3437C4.78781 12.3437 5.28789 12.24 5.74945 12.0413C6.33648 13.0667 7.37625 13.7487 8.5507 13.8809V14.2702C8.5507 15.1723 8.95687 16.0105 9.66508 16.5696L10.2455 17.0278C10.572 17.2856 10.9937 17.39 11.4027 17.3144C11.6214 17.2953 11.7169 17.415 11.7289 17.6247C11.7645 18.0177 11.9624 18.3833 12.2722 18.6279L13.2848 19.4273C13.5208 19.6136 13.6562 19.893 13.6562 20.1938V21.1696C13.6562 21.6095 13.3597 21.9971 12.9352 22.1122L11.1551 22.5945C10.4991 22.7723 9.92164 23.1759 9.5293 23.7309L7.06758 27.2126C6.84203 27.5316 6.72516 27.9067 6.72977 28.2974L6.73016 28.3369C6.73359 28.6323 6.54703 28.8918 6.26609 28.9827C5.88992 29.1044 5.55703 29.3491 5.32875 29.672L2.38273 33.8387C1.72969 34.7624 1.86961 36.0314 2.70805 36.7906C3.59062 37.5898 4.94352 37.5584 5.7882 36.7195L6.08 36.4296C6.35312 36.1583 6.49602 35.7823 6.47219 35.3981C6.46516 35.2275 6.63078 35.2131 6.76258 35.2212C7.11156 35.2166 7.44008 35.0788 7.68758 34.8329L8.90664 33.622L7.96938 37.191C7.68195 38.2855 8.25859 39.4252 9.31063 39.842C9.58102 39.9491 9.86016 39.9999 10.1351 39.9999C10.9862 39.9999 11.7958 39.512 12.1711 38.6937L13.1734 36.5091C13.3198 36.1902 13.3572 35.8259 13.2784 35.4837C13.2365 35.3013 13.3209 35.1091 13.4836 35.0166L13.542 34.9835C13.8352 34.817 14.0645 34.5668 14.2054 34.2601L15.5094 31.418C15.6784 31.0495 15.6739 30.629 15.4974 30.2643C15.442 30.118 15.5191 30.0306 15.661 29.9959C15.7823 29.9589 15.8956 29.9041 16.0002 29.8365C16.1048 29.9041 16.2181 29.959 16.3395 29.9959C16.4816 30.0309 16.558 30.1179 16.5029 30.2642C16.3262 30.629 16.3219 31.0495 16.4909 31.418L17.7949 34.2603C17.9357 34.5669 18.1651 34.817 18.4584 34.9836L18.5165 35.0166C18.6794 35.1092 18.7637 35.3013 18.7217 35.4839C18.643 35.8261 18.6804 36.1903 18.8268 36.5091L19.8291 38.6938C20.2046 39.5122 21.0141 40.0001 21.8652 40.0001C22.14 40.0001 22.4193 39.9491 22.6896 39.8421C23.7416 39.4254 24.3183 38.2857 24.0309 37.1912L23.0936 33.6223L24.3126 34.833C24.5602 35.0789 24.8887 35.2169 25.2377 35.2214C25.3696 35.2134 25.5349 35.2277 25.528 35.3983C25.5041 35.7824 25.647 36.1584 25.9202 36.4298L26.212 36.7196C26.6475 37.1523 27.2181 37.3701 27.7898 37.3701C28.3267 37.3701 28.8647 37.1778 29.292 36.7908C30.1305 36.0316 30.2704 34.7626 29.6173 33.839L26.6713 29.6722C26.443 29.3494 26.1102 29.1045 25.734 28.9829C25.453 28.892 25.2665 28.6325 25.2698 28.3372L25.2703 28.2976C25.2749 27.907 25.158 27.5318 24.9325 27.2127L24.0501 25.9648C23.8632 25.7005 23.4977 25.6377 23.2334 25.8246C22.9691 26.0115 22.9063 26.3771 23.0932 26.6413L23.9756 27.8892C24.0577 28.0054 24.1002 28.1419 24.0986 28.2841L24.098 28.3237C24.0889 29.1352 24.6013 29.8481 25.3733 30.0978C25.5102 30.1421 25.6314 30.2313 25.7145 30.3487L28.6605 34.5155C28.9716 34.9555 28.9051 35.5602 28.5055 35.922C28.0849 36.3028 27.4402 36.288 27.0377 35.8881L26.7461 35.5984C26.7123 35.5648 26.6947 35.5184 26.6976 35.471C26.7202 35.1074 26.5911 34.7458 26.3433 34.4788C26.0955 34.2117 25.7445 34.0559 25.3804 34.0513C25.3073 34.048 25.1921 34.0651 25.1384 34.0016L20.6672 29.5605C20.5855 29.4891 20.5834 29.3637 20.5783 29.2639C20.5245 28.5095 19.8917 27.9206 19.1361 27.9206C19.1339 27.9206 19.1316 27.9208 19.1291 27.9206C19.0562 27.9206 18.9877 27.8923 18.9359 27.8411L18.2522 27.1619C17.9059 26.818 17.7172 26.3411 17.7341 25.8538L17.7351 25.8276C17.7516 25.3527 17.579 24.9028 17.2487 24.561C16.9186 24.2192 16.4752 24.0309 16 24.0309C15.5248 24.0309 15.0813 24.2192 14.7512 24.561C14.421 24.9028 14.2484 25.3527 14.2649 25.828L14.2659 25.8534C14.2828 26.3411 14.0941 26.818 13.7478 27.1619L13.0641 27.8409C13.0123 27.8923 12.9438 27.9206 12.8709 27.9206C12.8687 27.9208 12.8663 27.9206 12.8639 27.9206C12.1084 27.9206 11.4755 28.5096 11.4217 29.2641C11.4166 29.3639 11.4145 29.489 11.3329 29.5605L6.86148 34.0016C6.8082 34.0649 6.69234 34.0479 6.61969 34.0512C6.25547 34.0559 5.90445 34.2116 5.65672 34.4787C5.40891 34.7457 5.27984 35.1073 5.30242 35.471C5.30531 35.5184 5.28773 35.5648 5.25398 35.5984L4.96227 35.8881C4.55977 36.288 3.915 36.3028 3.49453 35.922C3.09492 35.5602 3.02828 34.9555 3.33953 34.5154L6.28555 30.3487C6.36859 30.2312 6.48977 30.142 6.62672 30.0977C7.39867 29.848 7.91109 29.1351 7.90195 28.3235L7.90141 28.284C7.89977 28.1418 7.94227 28.0053 8.02437 27.8892L10.4861 24.4076C10.7216 24.0746 11.0679 23.8325 11.4616 23.7258L13.2416 23.2434C14.1757 22.9901 14.828 22.1374 14.828 21.1696V20.1938C14.828 19.5321 14.5302 18.9175 14.0109 18.5075L12.9983 17.7081C12.9399 17.6621 12.9027 17.5932 12.8959 17.5192L12.8898 17.4518C12.8534 17.0483 12.6473 16.6763 12.3245 16.4315C12.0015 16.1866 11.5877 16.0885 11.1895 16.1621C11.1128 16.1764 11.0332 16.1567 10.9716 16.1081L10.3912 15.6499C9.96625 15.3145 9.7225 14.8116 9.7225 14.2702V13.8294C10.3048 13.7098 10.848 13.4523 11.3123 13.0721C11.3759 13.1241 11.4413 13.1731 11.5077 13.2205V13.7225C11.5077 14.0233 11.643 14.3027 11.8792 14.4891L14.6687 16.6909C15.0606 17.0002 15.5302 17.1548 15.9998 17.1548C16.4695 17.1548 16.9391 17.0002 17.3309 16.6909L20.1205 14.4891C20.3566 14.3027 20.492 14.0233 20.492 13.7226V13.2205C20.5584 13.1731 20.6238 13.1241 20.6873 13.0721C21.1519 13.4523 21.6949 13.7098 22.2772 13.8294V14.2702C22.2772 14.8115 22.0335 15.3144 21.6085 15.6498L21.028 16.1081C20.9666 16.1566 20.8874 16.1764 20.8102 16.162C20.4119 16.0884 19.9981 16.1865 19.6752 16.4314C19.3524 16.6763 19.1463 17.0482 19.1098 17.4517L19.1038 17.5192C19.097 17.5932 19.0598 17.6621 19.0014 17.7081L17.9888 18.5075C17.4695 18.9175 17.1716 19.5321 17.1716 20.1938V21.1696C17.1716 22.1374 17.8241 22.9901 18.7581 23.2432L20.5382 23.7255C20.9319 23.8323 21.2783 24.0744 21.5137 24.4073C21.7015 24.6734 22.0691 24.733 22.3303 24.5475C22.5946 24.3607 22.6574 23.9951 22.4705 23.7308C22.0782 23.1758 21.5008 22.7722 20.8448 22.5945L19.0647 22.1121C18.6401 21.997 18.3436 21.6095 18.3436 21.1695V20.1937C18.3437 19.893 18.4791 19.6137 18.7152 19.4273ZM17.4263 27.9931L18.1102 28.6724C18.3844 28.9448 18.7513 29.0956 19.1348 29.0923C19.3381 29.0869 19.4298 29.2896 19.4178 29.4684C19.4426 29.8172 19.5929 30.1451 19.8412 30.3917L21.4543 31.994L22.8973 37.4886C23.0342 38.0105 22.7593 38.5538 22.2577 38.7525C21.7297 38.9616 21.1307 38.7211 20.894 38.2051L19.8916 36.0203C19.8525 35.9352 19.8426 35.838 19.8636 35.7466C20.0209 35.0633 19.7049 34.3441 19.0952 33.9977L19.037 33.9646C18.9587 33.9201 18.8973 33.8532 18.8597 33.7714L17.5559 30.9295C17.5332 30.8801 17.5338 30.8237 17.5575 30.7748C17.73 30.4184 17.738 30.0059 17.5792 29.643C17.4206 29.2802 17.1123 29.0061 16.7332 28.8908L16.6802 28.8747C16.6789 28.8743 16.6779 28.8736 16.6766 28.8732L17.198 27.7367C17.269 27.8261 17.3447 27.912 17.4263 27.9931ZM9.10258 37.4887L10.5455 31.9941L12.1588 30.3917C12.407 30.1452 12.5573 29.8173 12.582 29.4684C12.5699 29.2868 12.6632 29.0842 12.8709 29.0924C13.2552 29.0924 13.6169 28.9434 13.8898 28.6724L14.5735 27.9933C15.1505 27.4202 15.4652 26.6253 15.4369 25.8122L15.4359 25.7868C15.4306 25.6324 15.4867 25.4862 15.594 25.3751C15.8049 25.1469 16.1948 25.1469 16.4058 25.3751C16.513 25.4862 16.5692 25.6324 16.5638 25.7864L16.5629 25.8126C16.5576 25.9654 16.5644 26.1176 16.5827 26.2678L15.4314 28.7772C15.4036 28.845 15.333 28.8753 15.2663 28.8911C14.8874 29.0063 14.5791 29.2805 14.4205 29.6433C14.2619 30.0061 14.2698 30.4186 14.4423 30.7752C14.466 30.824 14.4666 30.8802 14.444 30.9295L13.1402 33.7714C13.1025 33.8534 13.0411 33.9203 12.9628 33.9648L12.9044 33.998C12.2948 34.3444 11.9789 35.0635 12.1361 35.7467C12.1572 35.8381 12.1473 35.9354 12.1081 36.0206L11.1058 38.2053C10.869 38.7214 10.2701 38.9619 9.74203 38.7527C9.24055 38.5538 8.96563 38.0105 9.10258 37.4887ZM16.605 15.7712C16.2487 16.0524 15.7511 16.0524 15.3948 15.7712L12.9455 13.8378C13.1773 13.8825 13.4148 13.9062 13.6562 13.9062C14.5212 13.9062 15.3398 13.6126 15.9999 13.0721C16.6601 13.6125 17.4787 13.9062 18.3437 13.9062C18.5851 13.9062 18.8226 13.8825 19.0543 13.8378L16.605 15.7712Z" fill="currentColor"></path></svg>