<svg xmlns="http://www.w3.org/2000/svg" width="26" height="40" viewBox="0 0 26 40" fill="none"><path d="M23.0734 15.1711C23.0561 14.5791 22.9879 13.9997 22.8723 13.4373C24.5777 12.5778 25.6562 10.8469 25.6562 8.90625C25.6562 6.10617 23.3782 3.82812 20.5781 3.82812C18.9259 3.82812 17.367 4.64758 16.422 5.98914C15.8867 5.79531 15.3305 5.64547 14.7578 5.54438V0.976562C14.7578 0.438047 14.3198 0 13.7812 0H12.2188C11.6802 0 11.2422 0.438047 11.2422 0.976562V5.54438C10.6695 5.64555 10.1134 5.79531 9.5782 5.98914C8.6332 4.64781 7.0732 3.82812 5.42188 3.82812C2.6218 3.82812 0.34375 6.10617 0.34375 8.90625C0.34375 10.841 1.42375 12.5772 3.12758 13.4376C3.01266 13.997 2.94469 14.5733 2.92695 15.162C2.22547 15.2193 1.67188 15.8074 1.67188 16.5234V18.4766C1.67188 19.2304 2.28523 19.8438 3.03906 19.8438H3.29656L3.77875 23.8298C3.68539 23.8928 3.59844 23.9663 3.52219 24.052C3.26297 24.3431 3.14023 24.7322 3.18547 25.1194L4.1425 33.3225C4.20523 33.8605 4.57539 34.2939 5.06461 34.4587L5.54781 38.4533C5.65438 39.3351 6.40461 40 7.29281 40H15.0193C15.3429 40 15.6052 39.7377 15.6052 39.4141C15.6052 39.0905 15.3429 38.8281 15.0193 38.8281H7.29281C6.99672 38.8281 6.74664 38.6065 6.71109 38.3125L6.25367 34.5312H19.7463L19.2888 38.3126C19.2533 38.6065 19.0032 38.8281 18.7071 38.8281H17.7536C17.43 38.8281 17.1677 39.0905 17.1677 39.4141C17.1677 39.7377 17.43 40 17.7536 40H18.7071C19.5953 40 20.3455 39.3351 20.4522 38.4533L20.9354 34.4587C21.4246 34.2938 21.7947 33.8605 21.8574 33.3225L22.8145 25.1194C22.8597 24.7322 22.737 24.3431 22.4777 24.052C22.4015 23.9662 22.3145 23.8928 22.2212 23.8298L22.7034 19.8438H22.8828C23.6366 19.8438 24.25 19.2304 24.25 18.4766V16.5234C24.25 15.8344 23.7371 15.2644 23.0734 15.1711ZM3.9375 8.86719C3.9375 8.07023 4.58586 7.42188 5.38281 7.42188C5.77352 7.42188 6.14141 7.58008 6.40938 7.85023C5.68125 8.48102 5.04422 9.21422 4.5207 10.0272C4.15883 9.75844 3.9375 9.33195 3.9375 8.86719ZM13 6.5625C17.8062 6.5625 21.7349 10.3895 21.9002 15.1562H4.09984C4.26508 10.3895 8.19375 6.5625 13 6.5625ZM21.4786 10.0261C20.9552 9.21359 20.3184 8.4807 19.5906 7.85023C19.859 7.58023 20.2278 7.42188 20.6172 7.42188C21.4141 7.42188 22.0625 8.07023 22.0625 8.86719C22.0625 9.32828 21.8379 9.75711 21.4786 10.0261ZM20.5781 5C22.732 5 24.4844 6.75234 24.4844 8.90625C24.4844 10.3155 23.7453 11.5812 22.5591 12.275C22.4181 11.8541 22.2499 11.4455 22.0568 11.0512C22.7777 10.5729 23.2344 9.75258 23.2344 8.86719C23.2344 7.42406 22.0603 6.25 20.6172 6.25C19.8619 6.25 19.1497 6.57906 18.658 7.13297C18.2975 6.8875 17.9203 6.665 17.5285 6.46711C18.2643 5.55164 19.3897 5 20.5781 5ZM12.4141 1.17188H13.5859V5.40812C13.392 5.39695 13.1967 5.39062 13 5.39062C12.8033 5.39062 12.608 5.39695 12.4141 5.40812V1.17188ZM1.51562 8.90625C1.51562 6.75234 3.26797 5 5.42188 5C6.62961 5 7.73633 5.53992 8.47328 6.46625C8.08078 6.66437 7.70289 6.88727 7.3418 7.1332C6.85062 6.57891 6.14062 6.25 5.38281 6.25C3.93969 6.25 2.76562 7.42406 2.76562 8.86719C2.76562 9.75937 3.21617 10.5731 3.94297 11.0515C3.75 11.4455 3.58195 11.8538 3.44102 12.2744C2.25578 11.5798 1.51562 10.3111 1.51562 8.90625ZM20.6936 33.1867C20.6821 33.2852 20.5987 33.3594 20.4996 33.3594H5.50039C5.40125 33.3594 5.31789 33.2852 5.30641 33.1867L4.34938 24.9836C4.35414 24.8387 4.4 24.7871 4.54336 24.7656H21.4566C21.5999 24.7871 21.6459 24.8386 21.6505 24.9836L20.6936 33.1867ZM23.0781 18.4766C23.0781 18.5842 22.9905 18.6719 22.8828 18.6719H8.06914C7.74555 18.6719 7.4832 18.9342 7.4832 19.2578C7.4832 19.5814 7.74555 19.8438 8.06914 19.8438H21.523L21.0693 23.5938H4.93063L4.47703 19.8438H5.33484C5.65844 19.8438 5.92078 19.5814 5.92078 19.2578C5.92078 18.9342 5.65844 18.6719 5.33484 18.6719H3.03906C2.93141 18.6719 2.84375 18.5842 2.84375 18.4766V16.5234C2.84375 16.4158 2.93141 16.3281 3.03906 16.3281H22.8828C22.9905 16.3281 23.0781 16.4158 23.0781 16.5234V18.4766Z" fill="currentColor"></path><path d="M16.4766 9.45312C16.153 9.45312 15.8906 9.71547 15.8906 10.0391V11.0547C15.8906 11.3783 16.153 11.6406 16.4766 11.6406C16.8002 11.6406 17.0625 11.3783 17.0625 11.0547V10.0391C17.0625 9.71547 16.8002 9.45312 16.4766 9.45312Z" fill="currentColor"></path><path d="M9.52344 9.45312C9.19984 9.45312 8.9375 9.71547 8.9375 10.0391V11.0547C8.9375 11.3783 9.19984 11.6406 9.52344 11.6406C9.84703 11.6406 10.1094 11.3783 10.1094 11.0547V10.0391C10.1094 9.71547 9.84703 9.45312 9.52344 9.45312Z" fill="currentColor2"></path><path d="M14.7578 12.5H14.7484C14.129 12.5 13.625 11.996 13.625 11.3765C13.625 11.0529 13.3627 10.7905 13.0391 10.7905C12.7155 10.7905 12.4531 11.0529 12.4531 11.3765C12.4531 11.9959 11.9491 12.4999 11.3297 12.4999H11.3203C10.9967 12.4999 10.7344 12.7622 10.7344 13.0858C10.7344 13.4094 10.9967 13.6718 11.3203 13.6718H11.3297C12.008 13.6718 12.6185 13.3761 13.0391 12.9067C13.4597 13.3761 14.0702 13.6718 14.7484 13.6718H14.7578C15.0814 13.6718 15.3438 13.4094 15.3438 13.0858C15.3438 12.7622 15.0814 12.5 14.7578 12.5Z" fill="currentColor"></path><path d="M13 25.9375C11.2769 25.9375 9.875 27.3394 9.875 29.0625C9.875 30.7856 11.2769 32.1875 13 32.1875C14.7231 32.1875 16.125 30.7856 16.125 29.0625C16.125 27.3394 14.7231 25.9375 13 25.9375ZM13 31.0156C11.923 31.0156 11.0469 30.1395 11.0469 29.0625C11.0469 27.9855 11.923 27.1094 13 27.1094C14.077 27.1094 14.9531 27.9855 14.9531 29.0625C14.9531 30.1395 14.077 31.0156 13 31.0156Z" fill="currentColor"></path></svg>