<svg xmlns="http://www.w3.org/2000/svg" width="38" height="40" viewBox="0 0 38 40" fill="none"><path d="M25.2538 8.65114C25.4803 8.88247 25.8513 8.88637 26.0824 8.6602C26.3138 8.43395 26.3178 8.06294 26.0915 7.83169L25.3187 7.04176C25.1564 6.87591 25.0781 6.64856 25.104 6.41801C25.1299 6.18747 25.2565 5.98301 25.4514 5.85731L25.7249 5.68083C26.2169 5.3634 26.5364 4.8477 26.6016 4.26598C26.6667 3.68426 26.4694 3.11059 26.06 2.69215L25.2872 1.90223C25.0609 1.67098 24.6899 1.66684 24.4586 1.89317C24.2273 2.11942 24.2232 2.49044 24.4496 2.72169L25.2224 3.51161C25.3846 3.67747 25.4629 3.90481 25.4371 4.13536C25.4112 4.3659 25.2846 4.57036 25.0896 4.69606L24.8161 4.87255C24.3242 5.18997 24.0047 5.70567 23.9395 6.28739C23.8743 6.86911 24.0717 7.44278 24.481 7.86122L25.2538 8.65114Z" fill="currentColor"></path><path d="M20.312 8.65147C20.5385 8.8828 20.9095 8.88671 21.1406 8.66053C21.372 8.43428 21.376 8.06327 21.1497 7.83202L20.1519 6.81217C19.9064 6.56124 19.788 6.21733 19.8271 5.8685C19.8663 5.51967 20.0578 5.21046 20.3528 5.02014L20.7058 4.79233C21.2977 4.41046 21.6821 3.78991 21.7606 3.08991C21.8391 2.38991 21.6016 1.69967 21.109 1.19616L20.1113 0.176159C19.8849 -0.0550912 19.514 -0.0592319 19.2827 0.167096C19.0514 0.393346 19.0473 0.764362 19.2736 0.995612L20.2714 2.01546C20.5169 2.26639 20.6353 2.6103 20.5962 2.95913C20.557 3.30796 20.3655 3.61717 20.0706 3.80749L19.7175 4.0353C19.1256 4.41717 18.7412 5.03772 18.6627 5.73772C18.5842 6.43772 18.8217 7.12796 19.3143 7.63147L20.312 8.65147Z" fill="currentColor"></path><path d="M15.1362 8.6511C15.3626 8.88251 15.7335 8.88633 15.9647 8.66024C16.196 8.43391 16.2001 8.06297 15.9739 7.83173L15.201 7.0418C15.0388 6.87594 14.9606 6.6486 14.9864 6.41805C15.0123 6.18743 15.1389 5.98305 15.3339 5.85727L15.6073 5.68079C16.0992 5.36344 16.4187 4.84774 16.4839 4.26602C16.5492 3.6843 16.3517 3.11063 15.9424 2.69219L15.1696 1.90227C14.9433 1.67094 14.5724 1.66688 14.341 1.89313C14.1097 2.11946 14.1056 2.4904 14.3319 2.72165L15.1047 3.51157C15.267 3.67743 15.3452 3.90477 15.3193 4.13532C15.2935 4.36594 15.1668 4.57032 14.9718 4.6961L14.6985 4.87258C14.2066 5.18993 13.8871 5.70563 13.8218 6.28735C13.7566 6.86907 13.954 7.44274 14.3634 7.86118L15.1362 8.6511Z" fill="currentColor"></path><path d="M36.4998 26.1703C36.8234 26.1703 37.0858 25.908 37.0858 25.5844V22.4595C37.0858 19.5519 34.7202 17.1864 31.8126 17.1864H28.4746C28.6713 16.336 28.9996 15.5173 29.4527 14.7625L30.9749 12.2262C31.5361 11.3609 30.8333 10.1198 29.8027 10.1555H10.6207C9.58999 10.1198 8.88749 11.3609 9.44842 12.2262L10.9707 14.7625C11.7522 16.0646 12.1652 17.5556 12.1652 19.0741C12.1652 20.9459 11.5275 22.7867 10.3696 24.2573C10.2461 24.4141 10.1253 24.5769 10.0107 24.7409C9.99983 24.7564 9.98999 24.7723 9.98077 24.7886C9.42592 25.1937 8.906 25.8597 8.4867 26.6326C7.55436 25.2105 6.30475 24.2356 5.25014 24.7275C4.88991 24.8955 4.29233 25.3855 4.33678 26.7805C4.35295 27.2878 4.45389 27.8509 4.62834 28.4312C2.97709 28.0946 1.38788 28.2916 0.994985 29.3712C0.634516 30.3616 1.50788 31.5465 3.16866 32.4309C1.74991 33.3629 0.778657 34.6103 1.26975 35.6635C1.43178 36.0109 1.89334 36.5792 3.17764 36.5792C3.22483 36.5792 3.27334 36.5784 3.3228 36.5769C3.82811 36.5608 4.38874 36.4605 4.96663 36.2873C4.57686 38.1277 4.92334 39.5583 5.91342 39.9187C6.06506 39.9738 6.21819 39.9999 6.37202 39.9999C7.31608 39.9999 8.27795 39.016 8.96936 37.7394C9.73499 38.907 10.7143 39.773 11.6242 39.773C11.8223 39.773 12.0173 39.7319 12.2058 39.644C12.4192 39.5444 12.7161 39.3317 12.9132 38.8847C14.255 39.6143 15.7571 39.9979 17.3006 39.9979H23.1229C27.2223 39.9979 30.7033 37.3019 31.8875 33.5901C34.7606 33.5498 37.0858 31.2014 37.0858 28.3188C37.0858 27.9952 36.8236 27.7329 36.4999 27.7329C36.1762 27.7329 35.914 27.9952 35.914 28.3188C35.914 30.4563 34.2701 32.2162 32.1804 32.4029C32.2494 32.0116 32.2933 31.6119 32.311 31.2055C33.6858 30.9659 34.7422 29.7526 34.7422 28.3188V22.4598C34.7422 20.8444 33.428 19.5302 31.8126 19.5302H28.2723C28.264 19.3785 28.2582 19.2266 28.2582 19.0744C28.2582 18.8348 28.2697 18.596 28.2901 18.3584H31.8126C34.0741 18.3584 35.914 20.1983 35.914 22.4598V25.5846C35.914 25.908 36.1762 26.1703 36.4998 26.1703ZM11.1416 25.5538C11.4087 25.6511 11.7113 26.8019 11.1376 28.6124C10.6369 28.8541 10.1643 29.1362 9.7503 29.4405C9.73663 29.4355 9.72288 29.4306 9.70913 29.4257C9.58756 28.9264 9.40694 28.4064 9.17866 27.8994C9.90272 26.1435 10.8734 25.4568 11.1416 25.5538ZM15.5787 36.3244L15.5626 36.4177L15.4692 36.4016C15.1904 36.3537 14.9335 36.2413 14.713 36.077C15.0454 36.0408 15.342 35.9668 15.5951 35.8562C15.61 36.0117 15.6054 36.1693 15.5787 36.3244ZM15.3596 34.5994C15.2624 34.8666 14.1116 35.1692 12.3012 34.5953C12.0597 34.0952 11.7773 33.6209 11.4733 33.2073C11.4783 33.1939 11.483 33.1804 11.4879 33.1669C11.987 33.0454 12.5069 32.8648 13.0139 32.6366C14.6675 33.3202 15.4737 34.2862 15.3596 34.5994ZM8.72788 33.9434C7.75866 33.9434 6.97014 33.1548 6.97014 32.1856C6.97014 31.2164 7.75866 30.4279 8.72788 30.4279C9.69709 30.4279 10.4856 31.2164 10.4856 32.1856C10.4856 33.1548 9.69709 33.9434 8.72788 33.9434ZM12.6353 31.5222C12.3067 31.6754 11.9722 31.8048 11.6439 31.9077C11.5787 31.2186 11.274 30.5984 10.8139 30.1313C11.1041 29.9457 11.4187 29.7723 11.7477 29.6189C12.5903 29.226 13.4733 28.988 14.1704 28.9657C14.7801 28.9465 15.0746 29.097 15.124 29.203C15.2567 29.4877 14.5701 30.62 12.6353 31.5222ZM5.7453 25.7895C6.03006 25.6572 7.16217 26.3434 8.06444 28.2783C8.21764 28.6069 8.34702 28.9414 8.44991 29.2697C7.76085 29.3348 7.14069 29.6396 6.67358 30.0997C6.48795 29.8095 6.31452 29.4948 6.16116 29.1659C5.76827 28.3233 5.53022 27.4402 5.50795 26.7432C5.4885 26.1337 5.6392 25.8389 5.7453 25.7895ZM2.09608 29.7719C2.19358 29.5039 3.34405 29.2017 5.15452 29.7759C5.39624 30.2765 5.67842 30.7494 5.98272 31.1634C5.97764 31.1769 5.9728 31.1907 5.96788 31.2044C5.46866 31.3259 4.94881 31.5066 4.44178 31.7348C2.68616 31.0105 1.99905 30.0385 2.09608 29.7719ZM3.28538 35.4056C2.67569 35.4248 2.38116 35.2743 2.3317 35.1683C2.19897 34.8837 2.88569 33.7513 4.82045 32.8491C5.14905 32.6959 5.48358 32.5666 5.81186 32.4637C5.87702 33.1528 6.18186 33.773 6.64194 34.2401C6.35163 34.4258 6.03678 34.5991 5.70803 34.7524C4.86553 35.1453 3.98249 35.3834 3.28538 35.4056ZM6.31413 38.8174C6.04756 38.7204 5.74467 37.5693 6.31827 35.7588C6.81858 35.5173 7.29186 35.235 7.70569 34.9309C7.71905 34.9359 7.73241 34.9405 7.74585 34.9454C7.86733 35.4444 8.04897 35.9653 8.27686 36.4719C7.55334 38.228 6.58405 38.9164 6.31413 38.8174ZM11.7105 38.5818C11.4262 38.7148 10.2936 38.0279 9.39131 36.093C9.23835 35.7649 9.10858 35.4301 9.00561 35.1016C9.69491 35.0365 10.3153 34.7316 10.7825 34.2714C10.9682 34.5618 11.1415 34.8771 11.2947 35.2055C11.6876 36.048 11.9256 36.9311 11.9479 37.6281C11.9673 38.2376 11.8165 38.5323 11.7105 38.5818ZM23.1228 38.8259H17.3005C15.8165 38.8259 14.3768 38.4203 13.1201 37.6518C13.1198 37.6314 13.1197 37.6115 13.119 37.5908C13.103 37.0852 13.0026 36.5242 12.8292 35.9461C12.9399 35.9695 13.049 35.9902 13.1565 36.0084C13.2185 36.128 13.2877 36.2438 13.3655 36.3541C13.8192 36.9962 14.4958 37.4233 15.2705 37.5566C15.3662 37.5697 15.8254 37.6616 15.9135 37.6563C16.2679 37.6563 16.5825 37.4009 16.6446 37.0399L16.7335 36.5231C16.8331 35.944 16.7546 35.3437 16.5134 34.8098C16.7062 33.8616 15.8422 32.7692 14.2869 31.9405C15.7057 31.0086 16.6771 29.7611 16.186 28.7079C16.018 28.3477 15.5283 27.7487 14.133 27.7945C13.6277 27.8106 13.0672 27.9109 12.4894 28.084C12.8656 26.3092 12.557 24.9164 11.6461 24.4957C12.739 22.9086 13.3369 21.0065 13.3369 19.0742C13.3369 17.7765 13.0723 16.4965 12.5644 15.3116H13.8486C14.1722 15.3116 14.4345 15.0492 14.4345 14.7256C14.4345 14.402 14.1722 14.1397 13.8486 14.1397H11.9635L10.4531 11.6231C10.3844 11.4605 10.4458 11.3519 10.6206 11.3273H29.8026C29.9775 11.352 30.039 11.4605 29.9701 11.6231L28.4598 14.1397H16.5829C16.2593 14.1397 15.9969 14.402 15.9969 14.7256C15.9969 15.0492 16.2593 15.3116 16.5829 15.3116H27.8588C27.351 16.4965 27.0863 17.7765 27.0863 19.0742C27.0863 21.2078 27.8132 23.306 29.1331 24.9823C30.4329 26.633 31.1486 28.6991 31.1486 30.8002C31.1486 35.2255 27.5483 38.8259 23.1228 38.8259ZM31.8126 20.7019C32.7819 20.7019 33.5704 21.4904 33.5704 22.4596V28.3187C33.5704 29.1159 33.0261 29.7993 32.2899 30.0096C32.1316 27.9236 31.352 25.9062 30.0538 24.2573C29.235 23.2174 28.6778 21.992 28.4208 20.7019H31.8126Z" fill="currentColor"></path><path d="M20.7396 32.5754C20.4502 32.286 19.9794 32.2861 19.6899 32.5754L19.3191 32.9463C18.7632 33.5021 18.457 34.2413 18.457 35.0275C18.457 35.8138 18.7632 36.5529 19.3191 37.1089L19.6899 37.4796C19.9793 37.769 20.4502 37.769 20.7395 37.4796L21.1105 37.1088C21.6664 36.5528 21.9726 35.8136 21.9726 35.0275C21.9726 34.2413 21.6664 33.5021 21.1105 32.9461L20.7396 32.5754ZM20.2819 36.2803L20.2148 36.3473L20.1478 36.2803C19.8132 35.9457 19.6289 35.5008 19.6289 35.0276C19.6289 34.5544 19.8132 34.1095 20.1478 33.775C20.1478 33.775 20.1479 33.775 20.1479 33.7749L20.2148 33.7079L20.2818 33.775C20.6164 34.1096 20.8007 34.5545 20.8007 35.0277C20.8007 35.5007 20.6164 35.9457 20.2819 36.2803Z" fill="currentColor"></path><path d="M27.4656 33.6396C27.4319 33.4443 27.3242 33.2737 27.1624 33.1593C26.88 32.9217 26.4126 33.0743 26.0915 33.123C25.3167 33.2563 24.6402 33.6833 24.1865 34.3255C23.7329 34.9676 23.5565 35.748 23.6899 36.5229L23.7789 37.0399C23.841 37.4007 24.1555 37.6561 24.51 37.6561C24.5954 37.6617 25.0602 37.5689 25.1529 37.5564C25.9278 37.4231 26.6043 36.996 27.0578 36.3539C27.5114 35.7117 27.6879 34.9313 27.5546 34.1564L27.4656 33.6396ZM26.1007 35.6779C25.8277 36.0643 25.4205 36.3214 24.9541 36.4016L24.8607 36.4177L24.8447 36.3243C24.7645 35.8579 24.8706 35.3882 25.1436 35.0018C25.4167 34.6152 25.8239 34.3582 26.2902 34.2779L26.3836 34.2618L26.3996 34.3553C26.4799 34.8216 26.3737 35.2913 26.1007 35.6779Z" fill="currentColor"></path></svg>