<svg xmlns="http://www.w3.org/2000/svg" width="30" height="30" viewBox="0 0 30 30" fill="none"><path d="M10.4158 7.0442C10.3296 7.30945 10.4144 7.59375 10.6318 7.76853L12.5674 9.32432L11.9159 11.7207C11.8428 11.9898 11.9413 12.2696 12.1671 12.4338C12.3929 12.5977 12.6893 12.6049 12.9227 12.4522L15.0005 11.092L17.0783 12.4522C17.1904 12.5255 17.3169 12.562 17.4431 12.562C17.58 12.562 17.7166 12.5191 17.8338 12.4338C18.0597 12.2698 18.1583 11.9898 18.085 11.7207L17.4335 9.32438L19.369 7.76865C19.5866 7.59393 19.6714 7.30957 19.5852 7.0442C19.499 6.77877 19.2632 6.59859 18.9846 6.58512L16.5041 6.46418L15.6226 4.14258C15.5237 3.88178 15.2794 3.7132 15.0004 3.7132C14.7215 3.7132 14.4772 3.88172 14.3783 4.14252L13.4967 6.46424L11.0165 6.58512C10.7377 6.59859 10.502 6.77877 10.4158 7.0442ZM13.7202 7.39189C13.9846 7.379 14.2161 7.21078 14.3099 6.9634L15.0004 5.14494L15.6908 6.96357C15.7848 7.2109 16.0164 7.379 16.2805 7.39189L18.2233 7.48664L16.7071 8.70521C16.5008 8.87109 16.4125 9.14326 16.4819 9.3985L16.9922 11.2755L15.3647 10.2101C15.254 10.1377 15.1272 10.1014 15.0003 10.1014C14.8735 10.1014 14.7465 10.1377 14.6357 10.2101L13.0084 11.2755L13.5187 9.39861C13.5881 9.1432 13.4997 8.87098 13.2934 8.70521L11.7772 7.4867L13.7202 7.39189ZM14.5316 2.18895V0.46875C14.5316 0.209883 14.7415 0 15.0004 0C15.2592 0 15.4691 0.209883 15.4691 0.46875V2.18895C15.4691 2.44781 15.2592 2.6577 15.0004 2.6577C14.7415 2.6577 14.5316 2.44781 14.5316 2.18895ZM17.3862 4.96617C17.213 4.77381 17.2286 4.47738 17.4209 4.30418L19.3378 2.57812C19.5303 2.40486 19.8266 2.42039 19.9999 2.61281C20.1731 2.80518 20.1576 3.1016 19.9652 3.2748L18.0482 5.00086C17.9586 5.08154 17.8465 5.12127 17.7347 5.12127C17.6066 5.12127 17.4788 5.069 17.3862 4.96617ZM10.0009 2.61281C10.1741 2.42039 10.4704 2.40486 10.6629 2.57812L12.5799 4.30418C12.7722 4.47738 12.7878 4.77381 12.6145 4.96617C12.522 5.06895 12.3942 5.12127 12.266 5.12127C12.1543 5.12127 12.0421 5.08154 11.9525 5.00086L10.0355 3.2748C9.84312 3.1016 9.82765 2.80518 10.0009 2.61281ZM21.0141 7.76853L22.9497 9.32432L22.2982 11.7207C22.2251 11.9898 22.3236 12.2696 22.5494 12.4338C22.775 12.5977 23.0715 12.6048 23.305 12.4522L25.3828 11.092L27.4606 12.4522C27.5727 12.5255 27.6992 12.562 27.8254 12.562C27.9623 12.562 28.0989 12.5191 28.2161 12.4338C28.4419 12.2699 28.5404 11.99 28.4673 11.7207L27.8158 9.32438L29.7513 7.76865C29.9688 7.59398 30.0536 7.30963 29.9674 7.0442C29.8812 6.77877 29.6454 6.59859 29.3669 6.58512L26.8864 6.46418L26.005 4.14258C25.906 3.88178 25.6617 3.7132 25.3828 3.7132C25.1037 3.7132 24.8595 3.88172 24.7605 4.14252L23.8791 6.46418L21.3988 6.58506C21.12 6.59854 20.8842 6.77877 20.798 7.0442C20.7118 7.30957 20.7966 7.59393 21.0141 7.76853ZM24.1024 7.39189C24.3669 7.379 24.5984 7.21078 24.6923 6.96334L25.3827 5.14488L26.0731 6.96328C26.167 7.21078 26.3986 7.379 26.6629 7.39184L28.6057 7.48658L27.0897 8.70504C26.8832 8.87086 26.7948 9.14309 26.8643 9.39844L27.3745 11.2754L25.747 10.21C25.6363 10.1376 25.5095 10.1014 25.3826 10.1014C25.2557 10.1014 25.1288 10.1377 25.0181 10.2101L23.3907 11.2754L23.901 9.39855C23.9704 9.14326 23.8821 8.87109 23.6757 8.70516L22.1596 7.48658L24.1024 7.39189ZM0.249392 7.76853L2.18504 9.32432L1.53353 11.7207C1.46041 11.9898 1.5589 12.2696 1.78467 12.4338C2.01049 12.5977 2.30691 12.6049 2.54029 12.4522L4.61808 11.092L6.69594 12.4522C6.80797 12.5255 6.93447 12.562 7.06074 12.562C7.19762 12.562 7.3342 12.5191 7.45144 12.4338C7.67721 12.2699 7.77576 11.99 7.70258 11.7207L7.05107 9.32438L8.9866 7.76865C9.20398 7.5941 9.28888 7.3098 9.20269 7.04391C9.11633 6.77865 8.88055 6.59854 8.60217 6.58506L6.12172 6.46412L5.24029 4.14258C5.14133 3.88178 4.89705 3.7132 4.61808 3.7132C4.33906 3.7132 4.09478 3.88172 3.99582 4.14252L3.11439 6.46418L0.634119 6.58506C0.355389 6.59854 0.119607 6.77877 0.0334745 7.04391C-0.0529513 7.30939 0.0318339 7.59387 0.249392 7.76853ZM3.33775 7.39189C3.60219 7.379 3.83375 7.21078 3.92762 6.96334L4.61803 5.14488L5.30838 6.96328C5.4023 7.21078 5.63387 7.379 5.89818 7.39184L7.84097 7.48658L6.32498 8.70504C6.11855 8.87086 6.03008 9.14309 6.09957 9.39844L6.60986 11.2754L4.98236 10.21C4.87162 10.1376 4.74476 10.1014 4.61791 10.1014C4.49099 10.1014 4.36408 10.1377 4.2534 10.2101L2.62601 11.2754L3.13631 9.39855C3.20574 9.14326 3.11738 8.87109 2.91101 8.70516L1.3949 7.48658L3.33775 7.39189ZM29.9266 24.8984C29.5968 23.8333 28.9212 22.8769 28.0244 22.2053C27.595 21.8838 27.1274 21.6334 26.6342 21.4561C27.318 20.9194 27.7586 20.0862 27.7586 19.1514C27.7586 17.5362 26.4445 16.2222 24.8294 16.2222C23.2142 16.2222 21.9001 17.5362 21.9001 19.1514C21.9001 20.0851 22.3397 20.9174 23.0222 21.4542C22.1075 21.7807 21.2971 22.3543 20.6766 23.1273C20.3865 22.7215 20.052 22.3447 19.6759 22.0045C18.918 21.3192 18.0286 20.8158 17.0708 20.5184C18.0865 19.845 18.758 18.6921 18.758 17.3848C18.758 15.3129 17.0723 13.6273 15.0004 13.6273C12.9286 13.6273 11.2429 15.3129 11.2429 17.3848C11.2429 18.6921 11.9143 19.845 12.93 20.5184C11.9721 20.8158 11.0827 21.3192 10.3249 22.0045C9.94877 22.3447 9.6142 22.7215 9.32422 23.1272C8.70371 22.3542 7.89336 21.7806 6.97859 21.454C7.66103 20.9173 8.10066 20.0849 8.10066 19.1512C8.10066 17.5361 6.78658 16.222 5.17144 16.222C3.55625 16.222 2.24217 17.5361 2.24217 19.1512C2.24217 20.0859 2.68279 20.9192 3.36658 21.4559C2.87334 21.6332 2.40576 21.8837 1.97633 22.2052C1.07943 22.8767 0.403904 23.8331 0.07408 24.8982C-0.0783224 25.3901 0.00611122 25.8894 0.311795 26.3041C0.61742 26.7188 1.06941 26.947 1.58445 26.947H8.06451V27.793C8.06451 29.01 9.05457 30.0001 10.2716 30.0001H19.7292C20.9461 30.0001 21.9362 29.01 21.9363 27.793V26.9473H28.4163C28.9314 26.9473 29.3834 26.7189 29.6889 26.3044C29.9946 25.8896 30.079 25.3903 29.9266 24.8984ZM24.8294 17.1597C25.9276 17.1597 26.8211 18.0532 26.8211 19.1514C26.8211 20.2497 25.9276 21.1432 24.8294 21.1432C23.7311 21.1432 22.8376 20.2497 22.8376 19.1514C22.8376 18.0532 23.7311 17.1597 24.8294 17.1597ZM12.1804 17.3848C12.1804 15.8298 13.4455 14.5648 15.0004 14.5648C16.5554 14.5648 17.8205 15.8298 17.8205 17.3848C17.8205 18.9393 16.5562 20.2039 15.002 20.2048C15.0014 20.2048 15.0008 20.2048 15.0004 20.2048C14.9999 20.2048 14.9994 20.2048 14.9988 20.2048C13.4446 20.2039 12.1804 18.9392 12.1804 17.3848ZM5.17144 17.1595C6.26967 17.1595 7.16316 18.053 7.16316 19.1512C7.16316 20.2495 6.26967 21.143 5.17144 21.143C4.07316 21.143 3.17967 20.2495 3.17967 19.1512C3.17967 18.053 4.07316 17.1595 5.17144 17.1595ZM8.12539 26.0095H1.58451C1.36877 26.0095 1.19451 25.9215 1.06648 25.7478C0.938396 25.5741 0.905877 25.3816 0.969685 25.1755C1.54297 23.3242 3.23158 22.0805 5.17144 22.0805C6.63881 22.0805 7.97551 22.7895 8.79763 23.9896C8.47262 24.621 8.24498 25.3016 8.12539 26.0095ZM20.9988 27.7929C20.9987 28.493 20.4292 29.0625 19.7292 29.0625H10.2716C9.57154 29.0625 9.00201 28.493 9.00201 27.7929V26.5037C9.34139 23.4458 11.9151 21.143 14.9988 21.1423C14.9994 21.1423 14.9999 21.1423 15.0004 21.1423C15.001 21.1423 15.0015 21.1423 15.002 21.1423C18.0857 21.1431 20.6593 23.4458 20.9988 26.5037V27.7929ZM28.9343 25.7481C28.8063 25.9217 28.6321 26.0097 28.4163 26.0097H21.8755C21.7558 25.3018 21.5282 24.6212 21.2032 23.9897C22.0254 22.7896 23.362 22.0807 24.8294 22.0807C26.7692 22.0807 28.4578 23.3245 29.0311 25.1758C29.0949 25.3818 29.0623 25.5743 28.9343 25.7481Z" fill="currentColor"></path></svg>