<svg width="48" height="36" xmlns="http://www.w3.org/2000/svg" fill="none">

 <g>
  <title>Layer 1</title>
  <path stroke="#a39b76" id="svg_1" fill="#a39b76" d="m36.4583,0.25c-6.6546,0 -11.4583,5.4938 -11.4581,13.6284c0.0426,11.819 8.9276,20.1754 21.7454,21.7802c1.1892,0.1489 1.6477,-1.4985 0.5526,-1.9854c-4.9183,-2.187 -7.4023,-4.9621 -7.7231,-7.709c-0.2397,-2.0522 0.8759,-3.8499 2.2767,-4.1865c3.6316,-0.8727 6.0649,-5.3952 6.0649,-10.0694c0,-6.3282 -5.1301,-11.4583 -11.4584,-11.4583z"/>
  <path stroke="#a39b76" id="svg_2" fill="#a39b76" d="m11.4583,0.25c-6.65454,0 -11.45828,5.4938 -11.45812,13.6284c0.04262,11.819 8.92759,20.1754 21.74542,21.7802c1.1892,0.1489 1.6477,-1.4985 0.5526,-1.9854c-4.9183,-2.187 -7.4023,-4.9621 -7.7231,-7.709c-0.2397,-2.0522 0.8759,-3.8499 2.2767,-4.1865c3.6316,-0.8727 6.0649,-5.3952 6.0649,-10.0694c0,-6.3282 -5.1301,-11.4583 -11.4584,-11.4583z"/>
 </g>
</svg>