<svg width="38" height="40" xmlns="http://www.w3.org/2000/svg" fill="none">

 <g>
  <title>Layer 1</title>
  <path stroke="#a6a182" id="svg_1" fill="currentColor" d="m25.2538,8.65114c0.2265,0.23133 0.5975,0.23523 0.8286,0.00906c0.2314,-0.22625 0.2354,-0.59726 0.0091,-0.82851l-0.7728,-0.78993c-0.1623,-0.16585 -0.2406,-0.3932 -0.2147,-0.62375c0.0259,-0.23054 0.1525,-0.435 0.3474,-0.5607l0.2735,-0.17648c0.492,-0.31743 0.8115,-0.83313 0.8767,-1.41485c0.0651,-0.58172 -0.1322,-1.15539 -0.5416,-1.57383l-0.7728,-0.78992c-0.2263,-0.23125 -0.5973,-0.23539 -0.8286,-0.00906c-0.2313,0.22625 -0.2354,0.59727 -0.009,0.82852l0.7728,0.78992c0.1622,0.16586 0.2405,0.3932 0.2147,0.62375c-0.0259,0.23054 -0.1525,0.435 -0.3475,0.5607l-0.2735,0.17649c-0.4919,0.31742 -0.8114,0.83312 -0.8766,1.41484c-0.0652,0.58172 0.1322,1.15539 0.5415,1.57383l0.7728,0.78992z"/>
  <path stroke="#a6a182" id="svg_2" fill="currentColor" d="m20.312,8.65147c0.2265,0.23133 0.5975,0.23524 0.8286,0.00906c0.2314,-0.22625 0.2354,-0.59726 0.0091,-0.82851l-0.9978,-1.01985c-0.2455,-0.25093 -0.3639,-0.59484 -0.3248,-0.94367c0.0392,-0.34883 0.2307,-0.65804 0.5257,-0.84836l0.353,-0.22781c0.5919,-0.38187 0.9763,-1.00242 1.0548,-1.70242c0.0785,-0.7 -0.159,-1.39024 -0.6516,-1.89375l-0.9977,-1.02c-0.2264,-0.23125 -0.5973,-0.23539 -0.8286,-0.00906c-0.2313,0.22625 -0.2354,0.59726 -0.0091,0.82851l0.9978,1.01985c0.2455,0.25093 0.3639,0.59484 0.3248,0.94367c-0.0392,0.34883 -0.2307,0.65804 -0.5256,0.84836l-0.3531,0.22781c-0.5919,0.38187 -0.9763,1.00242 -1.0548,1.70242c-0.0785,0.7 0.159,1.39024 0.6516,1.89375l0.9977,1.02z"/>
  <path stroke="#a6a182" id="svg_3" fill="currentColor" d="m15.1362,8.6511c0.2264,0.23141 0.5973,0.23523 0.8285,0.00914c0.2313,-0.22633 0.2354,-0.59727 0.0092,-0.82851l-0.7729,-0.78993c-0.1622,-0.16586 -0.2404,-0.3932 -0.2146,-0.62375c0.0259,-0.23062 0.1525,-0.435 0.3475,-0.56078l0.2734,-0.17648c0.4919,-0.31735 0.8114,-0.83305 0.8766,-1.41477c0.0653,-0.58172 -0.1322,-1.15539 -0.5415,-1.57383l-0.7728,-0.78992c-0.2263,-0.23133 -0.5972,-0.23539 -0.8286,-0.00914c-0.2313,0.22633 -0.2354,0.59727 -0.0091,0.82852l0.7728,0.78992c0.1623,0.16586 0.2405,0.3932 0.2146,0.62375c-0.0258,0.23062 -0.1525,0.435 -0.3475,0.56078l-0.2733,0.17648c-0.4919,0.31735 -0.8114,0.83305 -0.8767,1.41477c-0.0652,0.58172 0.1322,1.15539 0.5416,1.57383l0.7728,0.78992z"/>
  <path stroke="#a6a182" id="svg_4" fill="currentColor" d="m35.34233,23.56599c0.3236,0 0.586,-0.2623 0.586,-0.5859l0,-3.1249c0,-2.9076 -2.3656,-5.2731 -5.2732,-5.2731l-3.338,0c0.1967,-0.8504 0.525,-1.6691 0.9781,-2.4239l1.5222,-2.5363c0.5612,-0.8653 -0.1416,-2.1064 -1.1722,-2.0707l-19.182,0c-1.03071,-0.0357 -1.73321,1.2054 -1.17228,2.0707l1.52228,2.5363c0.7815,1.3021 1.1945,2.7931 1.1945,4.3116c0,1.8718 -0.6377,3.7126 -1.7956,5.1832c-0.1235,0.1568 -0.2443,0.3196 -0.3589,0.4836c-0.01087,0.0155 -0.02071,0.0314 -0.02993,0.0477c-0.55485,0.4051 -1.07477,1.0711 -1.49407,1.844c-0.93234,-1.4221 -2.18195,-2.397 -3.23656,-1.9051c-0.36023,0.168 -0.95781,0.658 -0.91336,2.053c0.01617,0.5073 0.11711,1.0704 0.29156,1.6507c-1.65125,-0.3366 -3.24046,-0.1396 -3.63336,0.94c-0.36046,0.9904 0.5129,2.1753 2.17368,3.0597c-1.41875,0.932 -2.39,2.1794 -1.89891,3.2326c0.16203,0.3474 0.62359,0.9157 1.90789,0.9157c0.04719,0 0.0957,-0.0008 0.14516,-0.0023c0.50531,-0.0161 1.06594,-0.1164 1.64383,-0.2896c-0.38977,1.8404 -0.04329,3.271 0.94679,3.6314c0.15164,0.0551 0.30477,0.0812 0.4586,0.0812c0.94406,0 1.90593,-0.9839 2.59734,-2.2605c0.76563,1.1676 1.74494,2.0336 2.65484,2.0336c0.1981,0 0.3931,-0.0411 0.5816,-0.129c0.2134,-0.0996 0.5103,-0.3123 0.7074,-0.7593c1.3418,0.7296 2.8439,1.1132 4.3874,1.1132l5.8223,0c4.0994,0 7.5804,-2.696 8.7646,-6.4078c2.8731,-0.0403 5.1983,-2.3887 5.1983,-5.2713c0,-0.3236 -0.2622,-0.5859 -0.5859,-0.5859c-0.3237,0 -0.5859,0.2623 -0.5859,0.5859c0,2.1375 -1.6439,3.8974 -3.7336,4.0841c0.069,-0.3913 0.1129,-0.791 0.1306,-1.1974c1.3748,-0.2396 2.4312,-1.4529 2.4312,-2.8867l0,-5.859c0,-1.6154 -1.3142,-2.9296 -2.9296,-2.9296l-3.5403,0c-0.0083,-0.1517 -0.0141,-0.3036 -0.0141,-0.4558c0,-0.2396 0.0115,-0.4784 0.0319,-0.716l3.5225,0c2.2615,0 4.1014,1.8399 4.1014,4.1014l0,3.1248c0,0.3234 0.2622,0.5857 0.5858,0.5857zm-25.3582,-0.6165c0.2671,0.0973 0.5697,1.2481 -0.004,3.0586c-0.5007,0.2417 -0.9733,0.5238 -1.3873,0.8281c-0.01367,-0.005 -0.02742,-0.0099 -0.04117,-0.0148c-0.12157,-0.4993 -0.30219,-1.0193 -0.53047,-1.5263c0.72406,-1.7559 1.69474,-2.4426 1.96294,-2.3456zm4.4371,10.7706l-0.0161,0.0933l-0.0934,-0.0161c-0.2788,-0.0479 -0.5357,-0.1603 -0.7562,-0.3246c0.3324,-0.0362 0.629,-0.1102 0.8821,-0.2208c0.0149,0.1555 0.0103,0.3131 -0.0164,0.4682zm-0.2191,-1.725c-0.0972,0.2672 -1.248,0.5698 -3.0584,-0.0041c-0.2415,-0.5001 -0.5239,-0.9744 -0.8279,-1.388c0.005,-0.0134 0.0097,-0.0269 0.0146,-0.0404c0.4991,-0.1215 1.019,-0.3021 1.526,-0.5303c1.6536,0.6836 2.4598,1.6496 2.3457,1.9628zm-6.63172,-0.656c-0.96921,0 -1.75774,-0.7886 -1.75774,-1.7578c0,-0.9692 0.78852,-1.7577 1.75774,-1.7577c0.96921,0 1.75772,0.7885 1.75772,1.7577c0,0.9692 -0.78851,1.7578 -1.75772,1.7578zm3.90742,-2.4212c-0.3286,0.1532 -0.6631,0.2826 -0.9914,0.3855c-0.0652,-0.6891 -0.3699,-1.3093 -0.83,-1.7764c0.2902,-0.1856 0.6048,-0.359 0.9338,-0.5124c0.8426,-0.3929 1.7256,-0.6309 2.4227,-0.6532c0.6097,-0.0192 0.9042,0.1313 0.9536,0.2373c0.1327,0.2847 -0.5539,1.417 -2.4887,2.3192zm-6.89,-5.7327c0.28476,-0.1323 1.41687,0.5539 2.31914,2.4888c0.1532,0.3286 0.28258,0.6631 0.38547,0.9914c-0.68906,0.0651 -1.30922,0.3699 -1.77633,0.83c-0.18563,-0.2902 -0.35906,-0.6049 -0.51242,-0.9338c-0.39289,-0.8426 -0.63094,-1.7257 -0.65321,-2.4227c-0.01945,-0.6095 0.13125,-0.9043 0.23735,-0.9537zm-3.64922,3.9824c0.0975,-0.268 1.24797,-0.5702 3.05844,0.004c0.24172,0.5006 0.5239,0.9735 0.8282,1.3875c-0.00508,0.0135 -0.00992,0.0273 -0.01484,0.041c-0.49922,0.1215 -1.01907,0.3022 -1.5261,0.5304c-1.75562,-0.7243 -2.44273,-1.6963 -2.3457,-1.9629zm1.1893,5.6337c-0.60969,0.0192 -0.90422,-0.1313 -0.95368,-0.2373c-0.13273,-0.2846 0.55399,-1.417 2.48875,-2.3192c0.3286,-0.1532 0.66313,-0.2825 0.99141,-0.3854c0.06516,0.6891 0.37,1.3093 0.83008,1.7764c-0.29031,0.1857 -0.60516,0.359 -0.93391,0.5123c-0.8425,0.3929 -1.72554,0.631 -2.42265,0.6532zm3.02875,3.4118c-0.26657,-0.097 -0.56946,-1.2481 0.00414,-3.0586c0.50031,-0.2415 0.97359,-0.5238 1.38742,-0.8279c0.01336,0.005 0.02672,0.0096 0.04016,0.0145c0.12148,0.499 0.30312,1.0199 0.53101,1.5265c-0.72352,1.7561 -1.69281,2.4445 -1.96273,2.3455zm5.39637,-0.2356c-0.2843,0.133 -1.4169,-0.5539 -2.31919,-2.4888c-0.15296,-0.3281 -0.28273,-0.6629 -0.3857,-0.9914c0.6893,-0.0651 1.30969,-0.37 1.77689,-0.8302c0.1857,0.2904 0.359,0.6057 0.5122,0.9341c0.3929,0.8425 0.6309,1.7256 0.6532,2.4226c0.0194,0.6095 -0.1314,0.9042 -0.2374,0.9537zm11.4123,0.2441l-5.8223,0c-1.484,0 -2.9237,-0.4056 -4.1804,-1.1741c-0.0003,-0.0204 -0.0004,-0.0403 -0.0011,-0.061c-0.016,-0.5056 -0.1164,-1.0666 -0.2898,-1.6447c0.1107,0.0234 0.2198,0.0441 0.3273,0.0623c0.062,0.1196 0.1312,0.2354 0.209,0.3457c0.4537,0.6421 1.1303,1.0692 1.905,1.2025c0.0957,0.0131 0.5549,0.105 0.643,0.0997c0.3544,0 0.669,-0.2554 0.7311,-0.6164l0.0889,-0.5168c0.0996,-0.5791 0.0211,-1.1794 -0.2201,-1.7133c0.1928,-0.9482 -0.6712,-2.0406 -2.2265,-2.8693c1.4188,-0.9319 2.3902,-2.1794 1.8991,-3.2326c-0.168,-0.3602 -0.6577,-0.9592 -2.053,-0.9134c-0.5053,0.0161 -1.0658,0.1164 -1.6436,0.2895c0.3762,-1.7748 0.0676,-3.1676 -0.8433,-3.5883c1.0929,-1.5871 1.6908,-3.4892 1.6908,-5.4215c0,-1.2977 -0.2646,-2.5777 -0.7725,-3.7626l1.2842,0c0.3236,0 0.5859,-0.2624 0.5859,-0.586c0,-0.3236 -0.2623,-0.5859 -0.5859,-0.5859l-1.8851,0l-1.5104,-2.5166c-0.0687,-0.1626 -0.0073,-0.2712 0.1675,-0.2958l19.182,0c0.1749,0.0247 0.2364,0.1332 0.1675,0.2958l-1.5103,2.5166l-11.8769,0c-0.3236,0 -0.586,0.2623 -0.586,0.5859c0,0.3236 0.2624,0.586 0.586,0.586l11.2759,0c-0.5078,1.1849 -0.7725,2.4649 -0.7725,3.7626c0,2.1336 0.7269,4.2318 2.0468,5.9081c1.2998,1.6507 2.0155,3.7168 2.0155,5.8179c0,4.4253 -3.6003,8.0257 -8.0258,8.0257zm8.6898,-18.124c0.9693,0 1.7578,0.7885 1.7578,1.7577l0,5.8591c0,0.7972 -0.5443,1.4806 -1.2805,1.6909c-0.1583,-2.086 -0.9379,-4.1034 -2.2361,-5.7523c-0.8188,-1.0399 -1.376,-2.2653 -1.633,-3.5554l3.3918,0z"/>
  <path stroke="#a6a182" id="svg_5" fill="currentColor" d="m20.7396,32.5754c-0.2894,-0.2894 -0.7602,-0.2893 -1.0497,0l-0.3708,0.3709c-0.5559,0.5558 -0.8621,1.295 -0.8621,2.0812c0,0.7863 0.3062,1.5254 0.8621,2.0814l0.3708,0.3707c0.2894,0.2894 0.7603,0.2894 1.0496,0l0.371,-0.3708c0.5559,-0.556 0.8621,-1.2952 0.8621,-2.0813c0,-0.7862 -0.3062,-1.5254 -0.8621,-2.0814l-0.3709,-0.3707zm-0.4577,3.7049l-0.0671,0.067l-0.067,-0.067c-0.3346,-0.3346 -0.5189,-0.7795 -0.5189,-1.2527c0,-0.4732 0.1843,-0.9181 0.5189,-1.2526c0,0 0.0001,0 0.0001,-0.0001l0.0669,-0.067l0.067,0.0671c0.3346,0.3346 0.5189,0.7795 0.5189,1.2527c0,0.473 -0.1843,0.918 -0.5188,1.2526z"/>
  <path stroke="#a6a182" id="svg_6" fill="currentColor" d="m27.4656,33.6396c-0.0337,-0.1953 -0.1414,-0.3659 -0.3032,-0.4803c-0.2824,-0.2376 -0.7498,-0.085 -1.0709,-0.0363c-0.7748,0.1333 -1.4513,0.5603 -1.905,1.2025c-0.4536,0.6421 -0.63,1.4225 -0.4966,2.1974l0.089,0.517c0.0621,0.3608 0.3766,0.6162 0.7311,0.6162c0.0854,0.0056 0.5502,-0.0872 0.6429,-0.0997c0.7749,-0.1333 1.4514,-0.5604 1.9049,-1.2025c0.4536,-0.6422 0.6301,-1.4226 0.4968,-2.1975l-0.089,-0.5168zm-1.3649,2.0383c-0.273,0.3864 -0.6802,0.6435 -1.1466,0.7237l-0.0934,0.0161l-0.016,-0.0934c-0.0802,-0.4664 0.0259,-0.9361 0.2989,-1.3225c0.2731,-0.3866 0.6803,-0.6436 1.1466,-0.7239l0.0934,-0.0161l0.016,0.0935c0.0803,0.4663 -0.0259,0.936 -0.2989,1.3226z"/>
 </g>
</svg>