<svg width="26" height="40" xmlns="http://www.w3.org/2000/svg" fill="none">

 <g>
  <title>Layer 1</title>
  <path stroke="#a6a182" id="svg_1" fill="currentColor" d="m22.91929,14.70878c-0.0173,-0.592 -0.0855,-1.1714 -0.2011,-1.7338c1.7054,-0.8595 2.7839,-2.5904 2.7839,-4.53105c0,-2.80008 -2.278,-5.07813 -5.0781,-5.07813c-1.6522,0 -3.2111,0.81946 -4.1561,2.16102c-0.5353,-0.19383 -1.0915,-0.34367 -1.6642,-0.44476l0,-4.56782c0,-0.53851 -0.438,-0.97656 -0.9766,-0.97656l-1.5624,0c-0.5386,0 -0.9766,0.43805 -0.9766,0.97656l0,4.56782c-0.5727,0.10117 -1.1288,0.25093 -1.664,0.44476c-0.945,-1.34133 -2.505,-2.16102 -4.15632,-2.16102c-2.80008,0 -5.07813,2.27805 -5.07813,5.07813c0,1.93475 1.08,3.67095 2.78383,4.53135c-0.11492,0.5594 -0.18289,1.1357 -0.20063,1.7244c-0.70148,0.0573 -1.25507,0.6454 -1.25507,1.3614l0,1.9532c0,0.7538 0.61335,1.3672 1.36718,1.3672l0.2575,0l0.48219,3.986c-0.09336,0.063 -0.18031,0.1365 -0.25656,0.2222c-0.25922,0.2911 -0.38196,0.6802 -0.33672,1.0674l0.95703,8.2031c0.06273,0.538 0.43289,0.9714 0.92211,1.1362l0.4832,3.9946c0.10657,0.8818 0.8568,1.5467 1.745,1.5467l7.72649,0c0.3236,0 0.5859,-0.2623 0.5859,-0.5859c0,-0.3236 -0.2623,-0.586 -0.5859,-0.586l-7.72649,0c-0.29609,0 -0.54617,-0.2216 -0.58172,-0.5156l-0.45742,-3.7813l13.49263,0l-0.4575,3.7814c-0.0355,0.2939 -0.2856,0.5155 -0.5817,0.5155l-0.9535,0c-0.3236,0 -0.5859,0.2624 -0.5859,0.586c0,0.3236 0.2623,0.5859 0.5859,0.5859l0.9535,0c0.8882,0 1.6384,-0.6649 1.7451,-1.5467l0.4832,-3.9946c0.4892,-0.1649 0.8593,-0.5982 0.922,-1.1362l0.9571,-8.2031c0.0452,-0.3872 -0.0775,-0.7763 -0.3368,-1.0674c-0.0762,-0.0858 -0.1632,-0.1592 -0.2565,-0.2222l0.4822,-3.986l0.1794,0c0.7538,0 1.3672,-0.6134 1.3672,-1.3672l0,-1.9532c0,-0.689 -0.5129,-1.259 -1.1766,-1.3523zm-19.1359,-6.30391c0,-0.79696 0.64836,-1.44531 1.44531,-1.44531c0.39071,0 0.7586,0.1582 1.02657,0.42835c-0.72813,0.63079 -1.36516,1.36399 -1.88868,2.17697c-0.36187,-0.26876 -0.5832,-0.69525 -0.5832,-1.16001zm9.0625,-2.30469c4.8062,0 8.7349,3.827 8.9002,8.5937l-17.80036,0c0.16524,-4.7667 4.09391,-8.5937 8.90016,-8.5937zm8.4786,3.4636c-0.5234,-0.81251 -1.1602,-1.5454 -1.888,-2.17587c0.2684,-0.27 0.6372,-0.42835 1.0266,-0.42835c0.7969,0 1.4453,0.64835 1.4453,1.44531c0,0.46109 -0.2246,0.88992 -0.5839,1.15891zm-0.9005,-5.0261c2.1539,0 3.9063,1.75234 3.9063,3.90625c0,1.40925 -0.7391,2.67495 -1.9253,3.36875c-0.141,-0.4209 -0.3092,-0.8295 -0.5023,-1.2238c0.7209,-0.4783 1.1776,-1.29862 1.1776,-2.18401c0,-1.44313 -1.1741,-2.61719 -2.6172,-2.61719c-0.7553,0 -1.4675,0.32906 -1.9592,0.88297c-0.3605,-0.24547 -0.7377,-0.46797 -1.1295,-0.66586c0.7358,-0.91547 1.8612,-1.46711 3.0496,-1.46711zm-8.164,-3.82812l1.1718,0l0,4.23624c-0.1939,-0.01117 -0.3892,-0.0175 -0.5859,-0.0175c-0.1967,0 -0.392,0.00633 -0.5859,0.0175l0,-4.23624zm-10.89848,7.73437c0,-2.15391 1.75235,-3.90625 3.90626,-3.90625c1.20773,0 2.31445,0.53992 3.0514,1.46625c-0.3925,0.19812 -0.77039,0.42102 -1.13148,0.66695c-0.49118,-0.55429 -1.20118,-0.8832 -1.95899,-0.8832c-1.44312,0 -2.61719,1.17406 -2.61719,2.61719c0,0.89218 0.45055,1.70591 1.17735,2.18431c-0.19297,0.394 -0.36102,0.8023 -0.50195,1.2229c-1.18524,-0.6946 -1.9254,-1.9633 -1.9254,-3.36815zm19.17798,24.28045c-0.0115,0.0985 -0.0949,0.1727 -0.194,0.1727l-14.99921,0c-0.09914,0 -0.1825,-0.0742 -0.19398,-0.1727l-0.95703,-8.2031c0.00476,-0.1449 0.05062,-0.1965 0.19398,-0.218l16.91324,0c0.1433,0.0215 0.1893,0.073 0.1939,0.218l-0.9569,8.2031zm2.3845,-14.7101c0,0.1076 -0.0876,0.1953 -0.1953,0.1953l-14.81366,0c-0.32359,0 -0.58594,0.2623 -0.58594,0.5859c0,0.3236 0.26235,0.586 0.58594,0.586l13.45386,0l-0.4537,3.75l-16.13867,0l-0.4536,-3.75l0.85781,0c0.3236,0 0.58594,-0.2624 0.58594,-0.586c0,-0.3236 -0.26234,-0.5859 -0.58594,-0.5859l-2.29578,0c-0.10765,0 -0.19531,-0.0877 -0.19531,-0.1953l0,-1.9532c0,-0.1076 0.08766,-0.1953 0.19531,-0.1953l19.84374,0c0.1077,0 0.1953,0.0877 0.1953,0.1953l0,1.9532z"/>
  <path stroke="#a6a182" id="svg_2" fill="currentColor" d="m16.4766,9.45312c-0.3236,0 -0.586,0.26235 -0.586,0.58598l0,1.0156c0,0.3236 0.2624,0.5859 0.586,0.5859c0.3236,0 0.5859,-0.2623 0.5859,-0.5859l0,-1.0156c0,-0.32363 -0.2623,-0.58598 -0.5859,-0.58598z"/>
  <path id="svg_3" fill="currentColor2" d="m9.52344,9.45312c-0.3236,0 -0.58594,0.26235 -0.58594,0.58598l0,1.0156c0,0.3236 0.26234,0.5859 0.58594,0.5859c0.32359,0 0.58596,-0.2623 0.58596,-0.5859l0,-1.0156c0,-0.32363 -0.26237,-0.58598 -0.58596,-0.58598z"/>
  <path stroke="#a6a182" id="svg_4" fill="currentColor" d="m14.7578,12.5l-0.0094,0c-0.6194,0 -1.1234,-0.504 -1.1234,-1.1235c0,-0.3236 -0.2623,-0.586 -0.5859,-0.586c-0.3236,0 -0.586,0.2624 -0.586,0.586c0,0.6194 -0.504,1.1234 -1.1234,1.1234l-0.0094,0c-0.3236,0 -0.5859,0.2623 -0.5859,0.5859c0,0.3236 0.2623,0.586 0.5859,0.586l0.0094,0c0.6783,0 1.2888,-0.2957 1.7094,-0.7651c0.4206,0.4694 1.0311,0.7651 1.7093,0.7651l0.0094,0c0.3236,0 0.586,-0.2624 0.586,-0.586c0,-0.3236 -0.2624,-0.5858 -0.586,-0.5858z"/>
  <path stroke="#a6a182" id="svg_5" fill="currentColor" d="m13,25.9375c-1.7231,0 -3.125,1.4019 -3.125,3.125c0,1.7231 1.4019,3.125 3.125,3.125c1.7231,0 3.125,-1.4019 3.125,-3.125c0,-1.7231 -1.4019,-3.125 -3.125,-3.125zm0,5.0781c-1.077,0 -1.9531,-0.8761 -1.9531,-1.9531c0,-1.077 0.8761,-1.9531 1.9531,-1.9531c1.077,0 1.9531,0.8761 1.9531,1.9531c0,1.077 -0.8761,1.9531 -1.9531,1.9531z"/>
 </g>
</svg>